<?xml version="1.0" encoding="utf-8"?>
<!-- Generator: Adobe Illustrator 19.0.0, SVG Export Plug-In . SVG Version: 6.00 Build 0)  -->
<svg version="1.1"
	 id="svg5569" xmlns:dc="http://purl.org/dc/elements/1.1/" xmlns:cc="http://creativecommons.org/ns#" xmlns:rdf="http://www.w3.org/1999/02/22-rdf-syntax-ns#" xmlns:svg="http://www.w3.org/2000/svg" xmlns:sodipodi="http://sodipodi.sourceforge.net/DTD/sodipodi-0.dtd" xmlns:inkscape="http://www.inkscape.org/namespaces/inkscape" sodipodi:docname="fahne.svg" inkscape:version="0.91 r13725"
	 xmlns="http://www.w3.org/2000/svg" xmlns:xlink="http://www.w3.org/1999/xlink" x="0px" y="0px" viewBox="0 0 595.3 841.9"
	 style="enable-background:new 0 0 595.3 841.9;" xml:space="preserve">
<style type="text/css">
	.st0{fill:#FFFFFF;}
	.st1{fill:#FEFFFE;}
	.st2{fill:#FEFEFE;}
	.st3{fill:#FEFDFE;}
	.st4{fill:#FDFDFD;}
	.st5{fill:#FCFCFD;}
	.st6{fill:#FCFCFC;}
	.st7{fill:#FBFBFC;}
	.st8{fill:#FBFBFB;}
	.st9{fill:#FAFAFB;}
	.st10{fill:#FBFAFB;}
	.st11{fill:#F9F9FA;}
	.st12{fill:#FAF9FA;}
	.st13{fill:#F9F8FA;}
	.st14{fill:#F8F8F9;}
	.st15{fill:#F8F7F9;}
	.st16{fill:#F7F7F8;}
	.st17{fill:#F7F6F8;}
	.st18{fill:#F6F6F7;}
	.st19{fill:#F5F5F7;}
	.st20{fill:#F4F4F6;}
	.st21{fill:#F3F6F6;}
	.st22{fill:#F3F3F5;}
	.st23{fill:#F2F5F5;}
	.st24{fill:#F2F2F4;}
	.st25{fill:#F1F1F4;}
	.st26{fill:#F1F4F4;}
	.st27{fill:#F0F0F3;}
	.st28{fill:#F0F3F3;}
	.st29{fill:#EFF2F3;}
	.st30{fill:#EFEFF2;}
	.st31{fill:#EFF2F2;}
	.st32{fill:#EEF1F2;}
	.st33{fill:#EEEEF1;}
	.st34{fill:#EDF0F1;}
	.st35{fill:#ECEFF1;}
	.st36{fill:#ECECF0;}
	.st37{fill:#EBEEF0;}
	.st38{fill:#EBEBEF;}
	.st39{fill:#EBEEEF;}
	.st40{fill:#EAEAEE;}
	.st41{fill:#EAEDEE;}
	.st42{fill:#E9ECEE;}
	.st43{fill:#E9E9ED;}
	.st44{fill:#E9ECED;}
	.st45{fill:#E8E8EC;}
	.st46{fill:#E8EBEC;}
	.st47{fill:#E7EAEC;}
	.st48{fill:#E7E7EB;}
	.st49{fill:#E7EAEB;}
	.st50{fill:#E6E9EB;}
	.st51{fill:#E6E6EA;}
	.st52{fill:#E5E8EA;}
	.st53{fill:#E5E5E9;}
	.st54{fill:#E5E8E9;}
	.st55{fill:#E4E7E9;}
	.st56{fill:#E4E9E7;}
	.st57{fill:#E4E7E8;}
	.st58{fill:#E3E6E8;}
	.st59{fill:#E3E6E7;}
	.st60{fill:#E2E5E7;}
	.st61{fill:#E2E7E5;}
	.st62{fill:#E1E4E6;}
	.st63{fill:#E1E4E5;}
	.st64{fill:#E0E3E5;}
	.st65{fill:#E0E0E4;}
	.st66{fill:#DFDFE4;}
	.st67{fill:#DFE2E4;}
	.st68{fill:#DEDEE3;}
	.st69{fill:#DDDDE2;}
	.st70{fill:#DCDFE2;}
	.st71{fill:#DCDCE1;}
	.st72{fill:#DBDEE1;}
	.st73{fill:#DADDE0;}
	.st74{fill:#DADADF;}
	.st75{fill:#D9DCDF;}
	.st76{fill:#D8DBDE;}
	.st77{fill:#D7DADE;}
	.st78{fill:#D7DADD;}
	.st79{fill:#D6DCDD;}
	.st80{fill:#D6D9DC;}
	.st81{fill:#D5D8DC;}
	.st82{fill:#D5D8DB;}
	.st83{fill:#D4D7DB;}
	.st84{fill:#D4DADB;}
	.st85{fill:#D3D6DA;}
	.st86{fill:#D3D9DA;}
	.st87{fill:#D2D5D9;}
	.st88{fill:#D1D4D8;}
	.st89{fill:#D0D3D8;}
	.st90{fill:#D0D3D7;}
	.st91{fill:#CFD2D7;}
	.st92{fill:#CFD2D6;}
	.st93{fill:#CED1D6;}
	.st94{fill:#CED1D5;}
	.st95{fill:#CDD0D5;}
	.st96{fill:#CDD0D4;}
	.st97{fill:#CCCFD4;}
	.st98{fill:#CCD2D4;}
	.st99{fill:#CBCED3;}
	.st100{fill:#CBD1D3;}
	.st101{fill:#CACDD2;}
	.st102{fill:#CAD0D2;}
	.st103{fill:#CACDD1;}
	.st104{fill:#C9CFD1;}
	.st105{fill:#C9CCD0;}
	.st106{fill:#C8CBD0;}
	.st107{fill:#C8CED0;}
	.st108{fill:#C7CACF;}
	.st109{fill:#C7CDCF;}
	.st110{fill:#C7CACE;}
	.st111{fill:#C6CCCE;}
	.st112{fill:#C5C8CD;}
	.st113{fill:#C5CBCD;}
	.st114{fill:#C5C8CC;}
	.st115{fill:#C4C7CC;}
	.st116{fill:#C4CACC;}
	.st117{fill:#C3C6CB;}
	.st118{fill:#C3C9CB;}
	.st119{fill:#C2C8CB;}
	.st120{fill:#C2C5CA;}
	.st121{fill:#C2C8CA;}
	.st122{fill:#C1C4C9;}
	.st123{fill:#C0C6C9;}
	.st124{fill:#C0C3C8;}
	.st125{fill:#BFC5C8;}
	.st126{fill:#BFC2C7;}
	.st127{fill:#BEC4C7;}
	.st128{fill:#BEC1C6;}
	.st129{fill:#BDC3C6;}
	.st130{fill:#BCBFC5;}
	.st131{fill:#BCC2C5;}
	.st132{fill:#BBC1C4;}
	.st133{fill:#BAC0C4;}
	.st134{fill:#BAC0C3;}
	.st135{fill:#B9BFC2;}
	.st136{fill:#B8BEC1;}
	.st137{fill:#B7C1C1;}
	.st138{fill:#B7BDC0;}
	.st139{fill:#B6BCC0;}
	.st140{fill:#B6BCBF;}
	.st141{fill:#B5B8BE;}
	.st142{fill:#B5BBBE;}
	.st143{fill:#B4B7BD;}
	.st144{fill:#B4BEBE;}
	.st145{fill:#B4BABD;}
	.st146{fill:#B3BDBD;}
	.st147{fill:#B3B9BC;}
	.st148{fill:#B2BCBC;}
	.st149{fill:#B2B8BB;}
	.st150{fill:#B1B7BA;}
	.st151{fill:#B0BABA;}
	.st152{clip-path:url(#SVGID_2_);}
	.st153{fill:url(#path1504_1_);}
	.st154{clip-path:url(#SVGID_4_);}
	.st155{fill:url(#path1532_1_);}
	.st156{clip-path:url(#SVGID_6_);}
	.st157{fill:url(#path1552_1_);}
	.st158{clip-path:url(#SVGID_8_);}
	.st159{fill:url(#path1578_1_);}
	.st160{clip-path:url(#SVGID_10_);}
	.st161{fill:url(#path1606_1_);}
	.st162{clip-path:url(#SVGID_12_);}
	.st163{fill:url(#path1634_1_);}
	.st164{clip-path:url(#SVGID_14_);}
	.st165{fill:url(#path1856_1_);}
	.st166{clip-path:url(#SVGID_16_);}
	.st167{fill:url(#path1876_1_);}
</style>
<sodipodi:namedview  showgrid="false" inkscape:cy="520" inkscape:cx="-381.46393" inkscape:zoom="1.01" borderopacity="1.0" bordercolor="#666666" id="base" pagecolor="#ffffff" inkscape:window-maximized="1" inkscape:window-y="46" inkscape:current-layer="layer1" inkscape:pageshadow="2" inkscape:pageopacity="0.0" inkscape:document-units="px" inkscape:window-x="0" inkscape:window-height="1421" inkscape:window-width="2880">
	</sodipodi:namedview>
<g id="layer1" inkscape:label="Ebene 1" inkscape:groupmode="layer">
	<path id="path76" inkscape:connector-curvature="0" class="st0" d="M196.8,829.2c-67,0-121.4-8.7-121.4-19.5
		c0-10.8,54.3-19.5,121.4-19.5c67,0,121.4,8.7,121.4,19.5C318.1,820.4,263.8,829.2,196.8,829.2 M196.8,790.3
		c-66.7,0-120.9,8.7-120.9,19.4c0,10.7,54.1,19.4,120.9,19.4c66.8,0,120.9-8.7,120.9-19.4C317.6,799,263.5,790.3,196.8,790.3"/>
	<path id="path78" inkscape:connector-curvature="0" class="st0" d="M196.8,829.1c-66.7,0-120.9-8.7-120.9-19.4
		c0-10.7,54.1-19.4,120.9-19.4c66.8,0,120.9,8.7,120.9,19.4C317.6,820.4,263.5,829.1,196.8,829.1 M196.8,790.4
		c-66.5,0-120.4,8.6-120.4,19.3c0,10.7,53.9,19.3,120.4,19.3c66.5,0,120.4-8.6,120.4-19.3C317.1,799,263.2,790.4,196.8,790.4"/>
	<path id="path80" inkscape:connector-curvature="0" class="st0" d="M196.8,829c-66.5,0-120.4-8.6-120.4-19.3
		c0-10.7,53.9-19.3,120.4-19.3c66.5,0,120.4,8.6,120.4,19.3C317.1,820.4,263.2,829,196.8,829 M196.8,790.4
		c-66.2,0-119.9,8.6-119.9,19.2c0,10.6,53.7,19.2,119.9,19.2c66.2,0,119.9-8.6,119.9-19.2C316.6,799.1,263,790.4,196.8,790.4"/>
	<path id="path82" inkscape:connector-curvature="0" class="st0" d="M196.8,828.9c-66.2,0-119.9-8.6-119.9-19.2
		c0-10.6,53.7-19.2,119.9-19.2c66.2,0,119.9,8.6,119.9,19.2C316.6,820.3,263,828.9,196.8,828.9 M196.8,790.5
		c-65.9,0-119.4,8.6-119.4,19.2c0,10.6,53.4,19.2,119.4,19.2c65.9,0,119.4-8.6,119.4-19.2C316.1,799.1,262.7,790.5,196.8,790.5"/>
	<path id="path84" inkscape:connector-curvature="0" class="st0" d="M196.8,828.8c-65.9,0-119.4-8.6-119.4-19.2
		c0-10.6,53.4-19.2,119.4-19.2c65.9,0,119.4,8.6,119.4,19.2C316.1,820.3,262.7,828.8,196.8,828.8 M196.8,790.6
		c-65.6,0-118.9,8.5-118.9,19.1c0,10.5,53.2,19.1,118.9,19.1c65.7,0,118.9-8.5,118.9-19.1C315.6,799.1,262.4,790.6,196.8,790.6"/>
	<path id="path86" inkscape:connector-curvature="0" class="st0" d="M196.8,828.8c-65.6,0-118.9-8.5-118.9-19.1
		c0-10.5,53.2-19.1,118.9-19.1c65.7,0,118.9,8.5,118.9,19.1C315.6,820.2,262.4,828.8,196.8,828.8 M196.8,790.7
		c-65.4,0-118.4,8.5-118.4,19c0,10.5,53,19,118.4,19c65.4,0,118.4-8.5,118.4-19C315.1,799.2,262.1,790.7,196.8,790.7"/>
	<path id="path88" inkscape:connector-curvature="0" class="st1" d="M196.8,828.7c-65.4,0-118.4-8.5-118.4-19c0-10.5,53-19,118.4-19
		c65.4,0,118.4,8.5,118.4,19C315.1,820.2,262.1,828.7,196.8,828.7 M196.8,790.8c-65.1,0-117.9,8.5-117.9,18.9
		c0,10.5,52.8,18.9,117.9,18.9c65.1,0,117.9-8.5,117.9-18.9C314.6,799.2,261.9,790.8,196.8,790.8"/>
	<path id="path90" inkscape:connector-curvature="0" class="st2" d="M196.8,828.6c-65.1,0-117.9-8.5-117.9-18.9
		c0-10.4,52.8-18.9,117.9-18.9c65.1,0,117.9,8.5,117.9,18.9C314.6,820.1,261.9,828.6,196.8,828.6 M196.8,790.8
		c-64.8,0-117.4,8.4-117.4,18.8c0,10.4,52.5,18.8,117.4,18.8c64.8,0,117.4-8.4,117.4-18.8C314.1,799.3,261.6,790.8,196.8,790.8"/>
	<path id="path92" inkscape:connector-curvature="0" class="st2" d="M196.8,828.5c-64.8,0-117.4-8.4-117.4-18.8
		c0-10.4,52.5-18.8,117.4-18.8c64.8,0,117.4,8.4,117.4,18.8C314.1,820.1,261.6,828.5,196.8,828.5 M196.8,790.9
		c-64.5,0-116.9,8.4-116.9,18.8c0,10.4,52.3,18.8,116.9,18.8c64.6,0,116.9-8.4,116.9-18.8C313.6,799.3,261.3,790.9,196.8,790.9"/>
	<path id="path94" inkscape:connector-curvature="0" class="st3" d="M196.8,828.4c-64.5,0-116.9-8.4-116.9-18.8
		c0-10.4,52.3-18.8,116.9-18.8c64.6,0,116.9,8.4,116.9,18.8C313.6,820,261.3,828.4,196.8,828.4 M196.8,791
		c-64.3,0-116.4,8.4-116.4,18.7c0,10.3,52.1,18.7,116.4,18.7c64.3,0,116.4-8.4,116.4-18.7C313.1,799.4,261,791,196.8,791"/>
	<path id="path96" inkscape:connector-curvature="0" class="st4" d="M196.8,828.4c-64.3,0-116.4-8.4-116.4-18.7
		c0-10.3,52.1-18.7,116.4-18.7c64.3,0,116.4,8.4,116.4,18.7C313.1,820,261,828.4,196.8,828.4 M196.8,791.1
		c-64,0-115.9,8.3-115.9,18.6c0,10.3,51.9,18.6,115.9,18.6c64,0,115.9-8.3,115.9-18.6C312.6,799.4,260.8,791.1,196.8,791.1"/>
	<path id="path98" inkscape:connector-curvature="0" class="st5" d="M196.8,828.3c-64,0-115.9-8.3-115.9-18.6
		c0-10.3,51.9-18.6,115.9-18.6c64,0,115.9,8.3,115.9,18.6C312.6,820,260.8,828.3,196.8,828.3 M196.8,791.2
		c-63.7,0-115.4,8.3-115.4,18.5c0,10.2,51.7,18.5,115.4,18.5c63.7,0,115.4-8.3,115.4-18.5C312.1,799.5,260.5,791.2,196.8,791.2"/>
	<path id="path100" inkscape:connector-curvature="0" class="st6" d="M196.8,828.2c-63.7,0-115.4-8.3-115.4-18.5
		c0-10.2,51.7-18.5,115.4-18.5c63.7,0,115.4,8.3,115.4,18.5C312.1,819.9,260.5,828.2,196.8,828.2 M196.8,791.2
		c-63.4,0-114.9,8.3-114.9,18.4c0,10.2,51.4,18.4,114.9,18.4c63.4,0,114.9-8.3,114.9-18.4C311.6,799.5,260.2,791.2,196.8,791.2"/>
	<path id="path102" inkscape:connector-curvature="0" class="st6" d="M196.8,828.1c-63.4,0-114.9-8.3-114.9-18.4
		c0-10.2,51.4-18.4,114.9-18.4c63.4,0,114.9,8.3,114.9,18.4C311.6,819.9,260.2,828.1,196.8,828.1 M196.8,791.3
		c-63.2,0-114.4,8.2-114.4,18.4c0,10.1,51.2,18.4,114.4,18.4c63.2,0,114.4-8.2,114.4-18.4C311.1,799.5,259.9,791.3,196.8,791.3"/>
	<path id="path104" inkscape:connector-curvature="0" class="st7" d="M196.8,828c-63.2,0-114.4-8.2-114.4-18.4
		c0-10.1,51.2-18.4,114.4-18.4c63.2,0,114.4,8.2,114.4,18.4C311.1,819.8,259.9,828,196.8,828 M196.8,791.4
		c-62.9,0-113.9,8.2-113.9,18.3c0,10.1,51,18.3,113.9,18.3c62.9,0,113.9-8.2,113.9-18.3C310.6,799.6,259.7,791.4,196.8,791.4"/>
	<path id="path106" inkscape:connector-curvature="0" class="st8" d="M196.8,828c-62.9,0-113.9-8.2-113.9-18.3
		c0-10.1,51-18.3,113.9-18.3c62.9,0,113.9,8.2,113.9,18.3C310.6,819.8,259.7,828,196.8,828 M196.8,791.5
		c-62.6,0-113.4,8.1-113.4,18.2c0,10.1,50.8,18.2,113.4,18.2c62.6,0,113.4-8.2,113.4-18.2C310.1,799.6,259.4,791.5,196.8,791.5"/>
	<path id="path108" inkscape:connector-curvature="0" class="st9" d="M196.8,827.9c-62.6,0-113.4-8.2-113.4-18.2
		c0-10,50.8-18.2,113.4-18.2c62.6,0,113.4,8.1,113.4,18.2C310.1,819.7,259.4,827.9,196.8,827.9 M196.8,791.6
		c-62.3,0-112.9,8.1-112.9,18.1c0,10,50.5,18.1,112.9,18.1c62.3,0,112.9-8.1,112.9-18.1C309.6,799.7,259.1,791.6,196.8,791.6"/>
	<path id="path110" inkscape:connector-curvature="0" class="st9" d="M196.8,827.8c-62.3,0-112.9-8.1-112.9-18.1
		c0-10,50.5-18.1,112.9-18.1c62.3,0,112.9,8.1,112.9,18.1C309.6,819.7,259.1,827.8,196.8,827.8 M196.8,791.6
		c-62.1,0-112.4,8.1-112.4,18c0,10,50.3,18,112.4,18c62.1,0,112.4-8.1,112.4-18C309.1,799.7,258.8,791.6,196.8,791.6"/>
	<path id="path112" inkscape:connector-curvature="0" class="st10" d="M196.8,827.7c-62.1,0-112.4-8.1-112.4-18
		c0-10,50.3-18,112.4-18c62.1,0,112.4,8.1,112.4,18C309.1,819.6,258.8,827.7,196.8,827.7 M196.8,791.7c-61.8,0-111.9,8-111.9,18
		c0,9.9,50.1,18,111.9,18c61.8,0,111.9-8,111.9-18C308.6,799.8,258.6,791.7,196.8,791.7"/>
	<path id="path114" inkscape:connector-curvature="0" class="st11" d="M196.8,827.6c-61.8,0-111.9-8-111.9-18
		c0-9.9,50.1-18,111.9-18c61.8,0,111.9,8,111.9,18C308.6,819.6,258.6,827.6,196.8,827.6 M196.8,791.8c-61.5,0-111.4,8-111.4,17.9
		c0,9.9,49.9,17.9,111.4,17.9c61.5,0,111.4-8,111.4-17.9C308.1,799.8,258.3,791.8,196.8,791.8"/>
	<path id="path116" inkscape:connector-curvature="0" class="st11" d="M196.8,827.6c-61.5,0-111.4-8-111.4-17.9
		c0-9.9,49.9-17.9,111.4-17.9c61.5,0,111.4,8,111.4,17.9C308.1,819.6,258.3,827.6,196.8,827.6 M196.8,791.9
		c-61.2,0-110.9,8-110.9,17.8c0,9.8,49.7,17.8,110.9,17.8c61.2,0,110.9-8,110.9-17.8C307.7,799.8,258,791.9,196.8,791.9"/>
	<path id="path118" inkscape:connector-curvature="0" class="st12" d="M196.8,827.5c-61.2,0-110.9-8-110.9-17.8
		c0-9.8,49.7-17.8,110.9-17.8c61.2,0,110.9,8,110.9,17.8C307.7,819.5,258,827.5,196.8,827.5 M196.8,792c-61,0-110.4,7.9-110.4,17.7
		c0,9.8,49.4,17.7,110.4,17.7c61,0,110.4-7.9,110.4-17.7C307.2,799.9,257.7,792,196.8,792"/>
	<path id="path120" inkscape:connector-curvature="0" class="st13" d="M196.8,827.4c-61,0-110.4-7.9-110.4-17.7
		c0-9.8,49.4-17.7,110.4-17.7c61,0,110.4,7.9,110.4,17.7C307.2,819.5,257.7,827.4,196.8,827.4 M196.8,792
		c-60.7,0-109.9,7.9-109.9,17.6c0,9.7,49.2,17.6,109.9,17.6c60.7,0,109.9-7.9,109.9-17.6C306.7,799.9,257.5,792,196.8,792"/>
	<path id="path122" inkscape:connector-curvature="0" class="st14" d="M196.8,827.3c-60.7,0-109.9-7.9-109.9-17.6
		c0-9.7,49.2-17.6,109.9-17.6c60.7,0,109.9,7.9,109.9,17.6C306.7,819.4,257.5,827.3,196.8,827.3 M196.8,792.1
		c-60.4,0-109.4,7.9-109.4,17.6c0,9.7,49,17.6,109.4,17.6c60.4,0,109.4-7.9,109.4-17.6C306.2,800,257.2,792.1,196.8,792.1"/>
	<path id="path124" inkscape:connector-curvature="0" class="st15" d="M196.8,827.2c-60.4,0-109.4-7.9-109.4-17.6
		c0-9.7,49-17.6,109.4-17.6c60.4,0,109.4,7.9,109.4,17.6C306.2,819.4,257.2,827.2,196.8,827.2 M196.8,792.2
		c-60.1,0-108.9,7.8-108.9,17.5c0,9.7,48.8,17.5,108.9,17.5c60.1,0,108.9-7.8,108.9-17.5C305.7,800,256.9,792.2,196.8,792.2"/>
	<path id="path126" inkscape:connector-curvature="0" class="st15" d="M196.8,827.2c-60.1,0-108.9-7.8-108.9-17.5
		c0-9.6,48.8-17.5,108.9-17.5c60.1,0,108.9,7.8,108.9,17.5C305.7,819.3,256.9,827.2,196.8,827.2 M196.8,792.3
		c-59.9,0-108.4,7.8-108.4,17.4c0,9.6,48.5,17.4,108.4,17.4c59.9,0,108.4-7.8,108.4-17.4C305.2,800.1,256.6,792.3,196.8,792.3"/>
	<path id="path128" inkscape:connector-curvature="0" class="st16" d="M196.8,827.1c-59.9,0-108.4-7.8-108.4-17.4
		c0-9.6,48.5-17.4,108.4-17.4c59.9,0,108.4,7.8,108.4,17.4C305.2,819.3,256.6,827.1,196.8,827.1 M196.8,792.4
		c-59.6,0-107.9,7.8-107.9,17.3c0,9.6,48.3,17.3,107.9,17.3c59.6,0,107.9-7.8,107.9-17.3C304.7,800.1,256.4,792.4,196.8,792.4"/>
	<path id="path130" inkscape:connector-curvature="0" class="st17" d="M196.8,827c-59.6,0-107.9-7.8-107.9-17.3
		c0-9.6,48.3-17.3,107.9-17.3c59.6,0,107.9,7.8,107.9,17.3C304.7,819.2,256.4,827,196.8,827 M196.8,792.4
		c-59.3,0-107.4,7.7-107.4,17.2c0,9.5,48.1,17.2,107.4,17.2c59.3,0,107.4-7.7,107.4-17.2C304.2,800.2,256.1,792.4,196.8,792.4"/>
	<path id="path132" inkscape:connector-curvature="0" class="st18" d="M196.8,826.9c-59.3,0-107.4-7.7-107.4-17.2
		c0-9.5,48.1-17.2,107.4-17.2c59.3,0,107.4,7.7,107.4,17.2C304.2,819.2,256.1,826.9,196.8,826.9 M196.8,792.5
		c-59,0-106.9,7.7-106.9,17.2c0,9.5,47.9,17.2,106.9,17.2c59,0,106.9-7.7,106.9-17.2C303.7,800.2,255.8,792.5,196.8,792.5"/>
	<path id="path134" inkscape:connector-curvature="0" class="st19" d="M196.8,826.8c-59,0-106.9-7.7-106.9-17.2
		c0-9.5,47.9-17.2,106.9-17.2c59,0,106.9,7.7,106.9,17.2C303.7,819.2,255.8,826.8,196.8,826.8 M196.8,792.6
		c-58.8,0-106.4,7.6-106.4,17.1c0,9.4,47.6,17.1,106.4,17.1c58.8,0,106.4-7.6,106.4-17.1C303.2,800.2,255.5,792.6,196.8,792.6"/>
	<path id="path136" inkscape:connector-curvature="0" class="st19" d="M196.8,826.8c-58.8,0-106.4-7.6-106.4-17.1
		c0-9.4,47.6-17.1,106.4-17.1c58.8,0,106.4,7.6,106.4,17.1C303.2,819.1,255.5,826.8,196.8,826.8 M196.8,792.7
		c-58.5,0-105.9,7.6-105.9,17c0,9.4,47.4,17,105.9,17c58.5,0,105.9-7.6,105.9-17C302.7,800.3,255.3,792.7,196.8,792.7"/>
	<path id="path138" inkscape:connector-curvature="0" class="st20" d="M196.8,826.7c-58.5,0-105.9-7.6-105.9-17
		c0-9.4,47.4-17,105.9-17c58.5,0,105.9,7.6,105.9,17C302.7,819.1,255.3,826.7,196.8,826.7 M196.8,792.8
		c-58.2,0-105.4,7.6-105.4,16.9c0,9.3,47.2,16.9,105.4,16.9c58.2,0,105.4-7.6,105.4-16.9C302.2,800.3,255,792.8,196.8,792.8"/>
	<path id="path140" inkscape:connector-curvature="0" class="st20" d="M196.8,826.6c-58.2,0-105.4-7.6-105.4-16.9
		c0-9.3,47.2-16.9,105.4-16.9c58.2,0,105.4,7.6,105.4,16.9C302.2,819,255,826.6,196.8,826.6 M196.8,792.8
		c-57.9,0-104.9,7.5-104.9,16.8c0,9.3,47,16.8,104.9,16.8c57.9,0,104.9-7.5,104.9-16.8C301.7,800.4,254.7,792.8,196.8,792.8"/>
	<path id="path142" inkscape:connector-curvature="0" class="st21" d="M196.8,826.5c-57.9,0-104.9-7.5-104.9-16.8
		c0-9.3,47-16.8,104.9-16.8c57.9,0,104.9,7.5,104.9,16.8C301.7,819,254.7,826.5,196.8,826.5 M196.8,792.9
		c-57.7,0-104.4,7.5-104.4,16.8c0,9.3,46.7,16.8,104.4,16.8c57.7,0,104.4-7.5,104.4-16.8C301.2,800.4,254.4,792.9,196.8,792.9"/>
	<path id="path144" inkscape:connector-curvature="0" class="st22" d="M196.8,826.4c-57.7,0-104.4-7.5-104.4-16.8
		c0-9.3,46.7-16.8,104.4-16.8c57.7,0,104.4,7.5,104.4,16.8C301.2,818.9,254.4,826.4,196.8,826.4 M196.8,793
		c-57.4,0-103.9,7.5-103.9,16.7c0,9.2,46.5,16.7,103.9,16.7c57.4,0,103.9-7.5,103.9-16.7C300.7,800.5,254.2,793,196.8,793"/>
	<path id="path146" inkscape:connector-curvature="0" class="st22" d="M196.8,826.4c-57.4,0-103.9-7.5-103.9-16.7
		c0-9.2,46.5-16.7,103.9-16.7c57.4,0,103.9,7.5,103.9,16.7C300.7,818.9,254.2,826.4,196.8,826.4 M196.8,793.1
		c-57.1,0-103.4,7.4-103.4,16.6c0,9.2,46.3,16.6,103.4,16.6c57.1,0,103.4-7.4,103.4-16.6C300.2,800.5,253.9,793.1,196.8,793.1"/>
	<path id="path148" inkscape:connector-curvature="0" class="st23" d="M196.8,826.3c-57.1,0-103.4-7.4-103.4-16.6
		c0-9.2,46.3-16.6,103.4-16.6c57.1,0,103.4,7.4,103.4,16.6C300.2,818.9,253.9,826.3,196.8,826.3 M196.8,793.2
		c-56.8,0-102.9,7.4-102.9,16.5c0,9.1,46.1,16.5,102.9,16.5c56.8,0,102.9-7.4,102.9-16.5C299.7,800.6,253.6,793.2,196.8,793.2"/>
	<path id="path150" inkscape:connector-curvature="0" class="st24" d="M196.8,826.2c-56.8,0-102.9-7.4-102.9-16.5
		c0-9.1,46.1-16.5,102.9-16.5c56.8,0,102.9,7.4,102.9,16.5C299.7,818.8,253.6,826.2,196.8,826.2 M196.8,793.2
		c-56.6,0-102.4,7.4-102.4,16.4c0,9.1,45.9,16.4,102.4,16.4c56.6,0,102.4-7.4,102.4-16.4C299.2,800.6,253.3,793.2,196.8,793.2"/>
	<path id="path152" inkscape:connector-curvature="0" class="st25" d="M196.8,826.1c-56.6,0-102.4-7.4-102.4-16.4
		c0-9.1,45.9-16.4,102.4-16.4c56.6,0,102.4,7.4,102.4,16.4C299.2,818.8,253.3,826.1,196.8,826.1 M196.8,793.3
		c-56.3,0-101.9,7.3-101.9,16.4c0,9,45.6,16.4,101.9,16.4c56.3,0,101.9-7.3,101.9-16.4C298.7,800.6,253.1,793.3,196.8,793.3"/>
	<path id="path154" inkscape:connector-curvature="0" class="st26" d="M196.8,826c-56.3,0-101.9-7.3-101.9-16.4
		c0-9,45.6-16.4,101.9-16.4c56.3,0,101.9,7.3,101.9,16.4C298.7,818.7,253.1,826,196.8,826 M196.8,793.4c-56,0-101.4,7.3-101.4,16.3
		c0,9,45.4,16.3,101.4,16.3c56,0,101.4-7.3,101.4-16.3C298.2,800.7,252.8,793.4,196.8,793.4"/>
	<path id="path156" inkscape:connector-curvature="0" class="st27" d="M196.8,826c-56,0-101.4-7.3-101.4-16.3
		c0-9,45.4-16.3,101.4-16.3c56,0,101.4,7.3,101.4,16.3C298.2,818.7,252.8,826,196.8,826 M196.8,793.5c-55.7,0-100.9,7.3-100.9,16.2
		c0,9,45.2,16.2,100.9,16.2c55.7,0,100.9-7.3,100.9-16.2C297.7,800.7,252.5,793.5,196.8,793.5"/>
	<path id="path158" inkscape:connector-curvature="0" class="st28" d="M196.8,825.9c-55.7,0-100.9-7.3-100.9-16.2
		c0-8.9,45.2-16.2,100.9-16.2c55.7,0,100.9,7.3,100.9,16.2C297.7,818.6,252.5,825.9,196.8,825.9 M196.8,793.6
		c-55.5,0-100.4,7.2-100.4,16.1c0,8.9,45,16.1,100.4,16.1c55.5,0,100.4-7.2,100.4-16.1C297.2,800.8,252.2,793.6,196.8,793.6"/>
	<path id="path160" inkscape:connector-curvature="0" class="st29" d="M196.8,825.8c-55.5,0-100.4-7.2-100.4-16.1
		c0-8.9,45-16.1,100.4-16.1c55.5,0,100.4,7.2,100.4,16.1C297.2,818.6,252.2,825.8,196.8,825.8 M196.8,793.6
		c-55.2,0-99.9,7.2-99.9,16c0,8.9,44.7,16,99.9,16c55.2,0,99.9-7.2,99.9-16C296.7,800.8,251.9,793.6,196.8,793.6"/>
	<path id="path162" inkscape:connector-curvature="0" class="st30" d="M196.8,825.7c-55.2,0-99.9-7.2-99.9-16c0-8.9,44.7-16,99.9-16
		c55.2,0,99.9,7.2,99.9,16C296.7,818.5,251.9,825.7,196.8,825.7 M196.8,793.7c-54.9,0-99.4,7.1-99.4,16c0,8.8,44.5,16,99.4,16
		c54.9,0,99.4-7.1,99.4-16C296.2,800.9,251.7,793.7,196.8,793.7"/>
	<path id="path164" inkscape:connector-curvature="0" class="st31" d="M196.8,825.6c-54.9,0-99.4-7.1-99.4-16c0-8.8,44.5-16,99.4-16
		c54.9,0,99.4,7.1,99.4,16C296.2,818.5,251.7,825.6,196.8,825.6 M196.8,793.8c-54.6,0-98.9,7.1-98.9,15.9c0,8.8,44.3,15.9,98.9,15.9
		c54.6,0,98.9-7.1,98.9-15.9C295.7,800.9,251.4,793.8,196.8,793.8"/>
	<path id="path166" inkscape:connector-curvature="0" class="st32" d="M196.8,825.6c-54.6,0-98.9-7.1-98.9-15.9
		c0-8.8,44.3-15.9,98.9-15.9c54.6,0,98.9,7.1,98.9,15.9C295.7,818.5,251.4,825.6,196.8,825.6 M196.8,793.9
		c-54.4,0-98.4,7.1-98.4,15.8c0,8.7,44.1,15.8,98.4,15.8c54.4,0,98.4-7.1,98.4-15.8C295.2,801,251.1,793.9,196.8,793.9"/>
	<path id="path168" inkscape:connector-curvature="0" class="st33" d="M196.8,825.5c-54.4,0-98.4-7.1-98.4-15.8
		c0-8.7,44.1-15.8,98.4-15.8c54.4,0,98.4,7.1,98.4,15.8C295.2,818.4,251.1,825.5,196.8,825.5 M196.8,794c-54.1,0-97.9,7-97.9,15.7
		c0,8.7,43.8,15.7,97.9,15.7c54.1,0,97.9-7,97.9-15.7C294.7,801,250.8,794,196.8,794"/>
	<path id="path170" inkscape:connector-curvature="0" class="st34" d="M196.8,825.4c-54.1,0-97.9-7-97.9-15.7
		c0-8.7,43.8-15.7,97.9-15.7c54.1,0,97.9,7,97.9,15.7C294.7,818.4,250.8,825.4,196.8,825.4 M196.8,794c-53.8,0-97.4,7-97.4,15.6
		c0,8.6,43.6,15.6,97.4,15.6c53.8,0,97.4-7,97.4-15.6C294.2,801,250.6,794,196.8,794"/>
	<path id="path172" inkscape:connector-curvature="0" class="st34" d="M196.8,825.3c-53.8,0-97.4-7-97.4-15.6
		c0-8.6,43.6-15.6,97.4-15.6s97.4,7,97.4,15.6C294.2,818.3,250.6,825.3,196.8,825.3 M196.8,794.1c-53.5,0-96.9,7-96.9,15.6
		c0,8.6,43.4,15.6,96.9,15.6c53.5,0,96.9-7,96.9-15.6C293.7,801.1,250.3,794.1,196.8,794.1"/>
	<path id="path174" inkscape:connector-curvature="0" class="st35" d="M196.8,825.2c-53.5,0-96.9-7-96.9-15.6
		c0-8.6,43.4-15.6,96.9-15.6c53.5,0,96.9,7,96.9,15.6C293.7,818.3,250.3,825.2,196.8,825.2 M196.8,794.2c-53.3,0-96.4,6.9-96.4,15.5
		c0,8.6,43.2,15.5,96.4,15.5c53.3,0,96.4-6.9,96.4-15.5C293.2,801.1,250,794.2,196.8,794.2"/>
	<path id="path176" inkscape:connector-curvature="0" class="st36" d="M196.8,825.2c-53.3,0-96.4-6.9-96.4-15.5
		c0-8.5,43.2-15.5,96.4-15.5c53.3,0,96.4,6.9,96.4,15.5C293.2,818.2,250,825.2,196.8,825.2 M196.8,794.3c-53,0-95.9,6.9-95.9,15.4
		c0,8.5,43,15.4,95.9,15.4c53,0,95.9-6.9,95.9-15.4C292.7,801.2,249.7,794.3,196.8,794.3"/>
	<path id="path178" inkscape:connector-curvature="0" class="st37" d="M196.8,825.1c-53,0-95.9-6.9-95.9-15.4
		c0-8.5,43-15.4,95.9-15.4c53,0,95.9,6.9,95.9,15.4C292.7,818.2,249.7,825.1,196.8,825.1 M196.8,794.4c-52.7,0-95.4,6.9-95.4,15.3
		c0,8.5,42.7,15.3,95.4,15.3c52.7,0,95.4-6.9,95.4-15.3C292.2,801.2,249.5,794.4,196.8,794.4"/>
	<path id="path180" inkscape:connector-curvature="0" class="st38" d="M196.8,825c-52.7,0-95.4-6.9-95.4-15.3
		c0-8.5,42.7-15.3,95.4-15.3c52.7,0,95.4,6.9,95.4,15.3C292.2,818.1,249.5,825,196.8,825 M196.8,794.4c-52.4,0-94.9,6.8-94.9,15.2
		c0,8.4,42.5,15.2,94.9,15.2c52.4,0,94.9-6.8,94.9-15.2C291.7,801.3,249.2,794.4,196.8,794.4"/>
	<path id="path182" inkscape:connector-curvature="0" class="st39" d="M196.8,824.9c-52.4,0-94.9-6.8-94.9-15.2
		c0-8.4,42.5-15.2,94.9-15.2c52.4,0,94.9,6.8,94.9,15.2C291.7,818.1,249.2,824.9,196.8,824.9 M196.8,794.5
		c-52.2,0-94.4,6.8-94.4,15.2c0,8.4,42.3,15.2,94.4,15.2c52.2,0,94.4-6.8,94.4-15.2C291.2,801.3,248.9,794.5,196.8,794.5"/>
	<path id="path184" inkscape:connector-curvature="0" class="st40" d="M196.8,824.8c-52.2,0-94.4-6.8-94.4-15.2
		c0-8.4,42.3-15.2,94.4-15.2c52.2,0,94.4,6.8,94.4,15.2C291.2,818.1,248.9,824.8,196.8,824.8 M196.8,794.6
		c-51.9,0-93.9,6.7-93.9,15.1c0,8.3,42.1,15.1,93.9,15.1c51.9,0,93.9-6.8,93.9-15.1C290.7,801.4,248.6,794.6,196.8,794.6"/>
	<path id="path186" inkscape:connector-curvature="0" class="st41" d="M196.8,824.8c-51.9,0-93.9-6.8-93.9-15.1
		c0-8.3,42.1-15.1,93.9-15.1c51.9,0,93.9,6.7,93.9,15.1C290.7,818,248.6,824.8,196.8,824.8 M196.8,794.7c-51.6,0-93.4,6.7-93.4,15
		c0,8.3,41.8,15,93.4,15c51.6,0,93.5-6.7,93.5-15C290.2,801.4,248.4,794.7,196.8,794.7"/>
	<path id="path188" inkscape:connector-curvature="0" class="st42" d="M196.8,824.7c-51.6,0-93.4-6.7-93.4-15c0-8.3,41.8-15,93.4-15
		c51.6,0,93.5,6.7,93.5,15C290.2,818,248.4,824.7,196.8,824.7 M196.8,794.8c-51.3,0-92.9,6.7-92.9,14.9c0,8.2,41.6,14.9,92.9,14.9
		c51.3,0,93-6.7,93-14.9C289.7,801.4,248.1,794.8,196.8,794.8"/>
	<path id="path190" inkscape:connector-curvature="0" class="st43" d="M196.8,824.6c-51.3,0-92.9-6.7-92.9-14.9
		c0-8.2,41.6-14.9,92.9-14.9c51.3,0,93,6.7,93,14.9C289.7,817.9,248.1,824.6,196.8,824.6 M196.8,794.8c-51.1,0-92.5,6.6-92.5,14.8
		c0,8.2,41.4,14.8,92.5,14.8c51.1,0,92.5-6.6,92.5-14.8C289.2,801.5,247.8,794.8,196.8,794.8"/>
	<path id="path192" inkscape:connector-curvature="0" class="st44" d="M196.8,824.5c-51.1,0-92.5-6.6-92.5-14.8
		c0-8.2,41.4-14.8,92.5-14.8c51.1,0,92.5,6.6,92.5,14.8C289.2,817.9,247.8,824.5,196.8,824.5 M196.8,794.9c-50.8,0-92,6.6-92,14.8
		c0,8.2,41.2,14.8,92,14.8c50.8,0,92-6.6,92-14.8C288.7,801.5,247.5,794.9,196.8,794.9"/>
	<path id="path194" inkscape:connector-curvature="0" class="st45" d="M196.8,824.4c-50.8,0-92-6.6-92-14.8c0-8.1,41.2-14.8,92-14.8
		c50.8,0,92,6.6,92,14.8C288.7,817.8,247.5,824.4,196.8,824.4 M196.8,795c-50.5,0-91.5,6.6-91.5,14.7c0,8.1,40.9,14.7,91.5,14.7
		c50.5,0,91.5-6.6,91.5-14.7C288.2,801.6,247.3,795,196.8,795"/>
	<path id="path196" inkscape:connector-curvature="0" class="st46" d="M196.8,824.4c-50.5,0-91.5-6.6-91.5-14.7
		c0-8.1,40.9-14.7,91.5-14.7c50.5,0,91.5,6.6,91.5,14.7C288.2,817.8,247.3,824.4,196.8,824.4 M196.8,795.1c-50.2,0-91,6.5-91,14.6
		c0,8.1,40.7,14.6,91,14.6c50.2,0,91-6.5,91-14.6C287.7,801.6,247,795.1,196.8,795.1"/>
	<path id="path198" inkscape:connector-curvature="0" class="st47" d="M196.8,824.3c-50.2,0-91-6.5-91-14.6c0-8.1,40.7-14.6,91-14.6
		c50.2,0,91,6.5,91,14.6C287.7,817.7,247,824.3,196.8,824.3 M196.8,795.2c-50,0-90.5,6.5-90.5,14.5c0,8,40.5,14.5,90.5,14.5
		c50,0,90.5-6.5,90.5-14.5C287.2,801.7,246.7,795.2,196.8,795.2"/>
	<path id="path200" inkscape:connector-curvature="0" class="st48" d="M196.8,824.2c-50,0-90.5-6.5-90.5-14.5
		c0-8,40.5-14.5,90.5-14.5c50,0,90.5,6.5,90.5,14.5C287.2,817.7,246.7,824.2,196.8,824.2 M196.8,795.2c-49.7,0-90,6.5-90,14.4
		c0,8,40.3,14.4,90,14.4c49.7,0,90-6.5,90-14.4C286.7,801.7,246.4,795.2,196.8,795.2"/>
	<path id="path202" inkscape:connector-curvature="0" class="st49" d="M196.8,824.1c-49.7,0-90-6.5-90-14.4c0-8,40.3-14.4,90-14.4
		c49.7,0,90,6.5,90,14.4C286.7,817.7,246.4,824.1,196.8,824.1 M196.8,795.3c-49.4,0-89.5,6.4-89.5,14.4c0,7.9,40.1,14.4,89.5,14.4
		c49.4,0,89.5-6.4,89.5-14.4C286.2,801.7,246.2,795.3,196.8,795.3"/>
	<path id="path204" inkscape:connector-curvature="0" class="st50" d="M196.8,824c-49.4,0-89.5-6.4-89.5-14.4
		c0-7.9,40.1-14.4,89.5-14.4c49.4,0,89.5,6.4,89.5,14.4C286.2,817.6,246.2,824,196.8,824 M196.8,795.4c-49.1,0-89,6.4-89,14.3
		c0,7.9,39.8,14.3,89,14.3c49.1,0,89-6.4,89-14.3C285.7,801.8,245.9,795.4,196.8,795.4"/>
	<path id="path206" inkscape:connector-curvature="0" class="st51" d="M196.8,824c-49.1,0-89-6.4-89-14.3c0-7.9,39.8-14.3,89-14.3
		c49.1,0,89,6.4,89,14.3C285.7,817.6,245.9,824,196.8,824 M196.8,795.5c-48.9,0-88.5,6.4-88.5,14.2c0,7.8,39.6,14.2,88.5,14.2
		c48.9,0,88.5-6.4,88.5-14.2C285.2,801.8,245.6,795.5,196.8,795.5"/>
	<path id="path208" inkscape:connector-curvature="0" class="st52" d="M196.8,823.9c-48.9,0-88.5-6.4-88.5-14.2
		c0-7.8,39.6-14.2,88.5-14.2c48.9,0,88.5,6.4,88.5,14.2C285.2,817.5,245.6,823.9,196.8,823.9 M196.8,795.6c-48.6,0-88,6.3-88,14.1
		c0,7.8,39.4,14.1,88,14.1c48.6,0,88-6.3,88-14.1C284.7,801.9,245.3,795.6,196.8,795.6"/>
	<path id="path210" inkscape:connector-curvature="0" class="st53" d="M196.8,823.8c-48.6,0-88-6.3-88-14.1c0-7.8,39.4-14.1,88-14.1
		c48.6,0,88,6.3,88,14.1C284.7,817.5,245.3,823.8,196.8,823.8 M196.8,795.6c-48.3,0-87.5,6.3-87.5,14c0,7.8,39.2,14,87.5,14
		c48.3,0,87.5-6.3,87.5-14C284.2,801.9,245.1,795.6,196.8,795.6"/>
	<path id="path212" inkscape:connector-curvature="0" class="st54" d="M196.8,823.7c-48.3,0-87.5-6.3-87.5-14c0-7.8,39.2-14,87.5-14
		c48.3,0,87.5,6.3,87.5,14C284.2,817.4,245.1,823.7,196.8,823.7 M196.8,795.7c-48,0-87,6.3-87,14c0,7.7,38.9,14,87,14
		c48,0,87-6.3,87-14C283.7,802,244.8,795.7,196.8,795.7"/>
	<path id="path214" inkscape:connector-curvature="0" class="st55" d="M196.8,823.6c-48,0-87-6.3-87-14c0-7.7,38.9-14,87-14
		c48,0,87,6.3,87,14C283.7,817.4,244.8,823.6,196.8,823.6 M196.8,795.8c-47.8,0-86.5,6.2-86.5,13.9c0,7.7,38.7,13.9,86.5,13.9
		c47.8,0,86.5-6.2,86.5-13.9C283.2,802,244.5,795.8,196.8,795.8"/>
	<path id="path216" inkscape:connector-curvature="0" class="st56" d="M196.8,823.6c-47.8,0-86.5-6.2-86.5-13.9
		c0-7.7,38.7-13.9,86.5-13.9c47.8,0,86.5,6.2,86.5,13.9C283.2,817.3,244.5,823.6,196.8,823.6 M196.8,795.9c-47.5,0-86,6.2-86,13.8
		c0,7.6,38.5,13.8,86,13.8c47.5,0,86-6.2,86-13.8C282.7,802.1,244.2,795.9,196.8,795.9"/>
	<path id="path218" inkscape:connector-curvature="0" class="st57" d="M196.8,823.5c-47.5,0-86-6.2-86-13.8c0-7.6,38.5-13.8,86-13.8
		c47.5,0,86,6.2,86,13.8C282.7,817.3,244.2,823.5,196.8,823.5 M196.8,796c-47.2,0-85.5,6.1-85.5,13.7c0,7.6,38.3,13.7,85.5,13.7
		s85.5-6.1,85.5-13.7C282.2,802.1,244,796,196.8,796"/>
	<path id="path220" inkscape:connector-curvature="0" class="st58" d="M196.8,823.4c-47.2,0-85.5-6.1-85.5-13.7
		c0-7.6,38.3-13.7,85.5-13.7s85.5,6.1,85.5,13.7C282.2,817.3,244,823.4,196.8,823.4 M196.8,796c-46.9,0-85,6.1-85,13.6
		c0,7.5,38,13.6,85,13.6c46.9,0,85-6.1,85-13.6C281.7,802.1,243.7,796,196.8,796"/>
	<path id="path222" inkscape:connector-curvature="0" class="st59" d="M196.8,823.3c-46.9,0-85-6.1-85-13.6c0-7.5,38-13.6,85-13.6
		c46.9,0,85,6.1,85,13.6C281.7,817.2,243.7,823.3,196.8,823.3 M196.8,796.1c-46.7,0-84.5,6.1-84.5,13.6c0,7.5,37.8,13.6,84.5,13.6
		s84.5-6.1,84.5-13.6C281.2,802.2,243.4,796.1,196.8,796.1"/>
	<path id="path224" inkscape:connector-curvature="0" class="st60" d="M196.8,823.2c-46.7,0-84.5-6.1-84.5-13.6
		c0-7.5,37.8-13.6,84.5-13.6s84.5,6.1,84.5,13.6C281.2,817.2,243.4,823.2,196.8,823.2 M196.8,796.2c-46.4,0-84,6-84,13.5
		c0,7.5,37.6,13.5,84,13.5s84-6,84-13.5C280.7,802.2,243.1,796.2,196.8,796.2"/>
	<path id="path226" inkscape:connector-curvature="0" class="st61" d="M196.8,823.2c-46.4,0-84-6-84-13.5c0-7.4,37.6-13.5,84-13.5
		s84,6,84,13.5C280.7,817.1,243.1,823.2,196.8,823.2 M196.8,796.3c-46.1,0-83.5,6-83.5,13.4c0,7.4,37.4,13.4,83.5,13.4
		s83.5-6,83.5-13.4C280.2,802.3,242.9,796.3,196.8,796.3"/>
	<path id="path228" inkscape:connector-curvature="0" class="st62" d="M196.8,823.1c-46.1,0-83.5-6-83.5-13.4
		c0-7.4,37.4-13.4,83.5-13.4s83.5,6,83.5,13.4C280.2,817.1,242.9,823.1,196.8,823.1 M196.8,796.4c-45.8,0-83,6-83,13.3
		c0,7.4,37.2,13.3,83,13.3c45.8,0,83-6,83-13.3C279.7,802.3,242.6,796.4,196.8,796.4"/>
	<path id="path230" inkscape:connector-curvature="0" class="st62" d="M196.8,823c-45.8,0-83-6-83-13.3c0-7.4,37.2-13.3,83-13.3
		c45.8,0,83,6,83,13.3C279.7,817,242.6,823,196.8,823 M196.8,796.4c-45.6,0-82.5,5.9-82.5,13.2c0,7.3,36.9,13.2,82.5,13.2
		c45.6,0,82.5-5.9,82.5-13.2C279.2,802.4,242.3,796.4,196.8,796.4"/>
	<path id="path232" inkscape:connector-curvature="0" class="st63" d="M196.8,822.9c-45.6,0-82.5-5.9-82.5-13.2
		c0-7.3,36.9-13.2,82.5-13.2c45.6,0,82.5,5.9,82.5,13.2C279.2,817,242.3,822.9,196.8,822.9 M196.8,796.5c-45.3,0-82,5.9-82,13.2
		c0,7.3,36.7,13.2,82,13.2c45.3,0,82-5.9,82-13.2C278.7,802.4,242,796.5,196.8,796.5"/>
	<path id="path234" inkscape:connector-curvature="0" class="st64" d="M196.8,822.8c-45.3,0-82-5.9-82-13.2c0-7.3,36.7-13.2,82-13.2
		c45.3,0,82,5.9,82,13.2C278.7,816.9,242,822.8,196.8,822.8 M196.8,796.6c-45,0-81.5,5.9-81.5,13.1c0,7.2,36.5,13.1,81.5,13.1
		c45,0,81.5-5.9,81.5-13.1C278.2,802.5,241.8,796.6,196.8,796.6"/>
	<path id="path236" inkscape:connector-curvature="0" class="st65" d="M196.8,822.8c-45,0-81.5-5.9-81.5-13.1
		c0-7.2,36.5-13.1,81.5-13.1c45,0,81.5,5.9,81.5,13.1C278.2,816.9,241.8,822.8,196.8,822.8 M196.8,796.7c-44.7,0-81,5.8-81,13
		c0,7.2,36.3,13,81,13c44.7,0,81-5.8,81-13C277.7,802.5,241.5,796.7,196.8,796.7"/>
	<path id="path238" inkscape:connector-curvature="0" class="st66" d="M196.8,822.7c-44.7,0-81-5.8-81-13c0-7.2,36.3-13,81-13
		c44.7,0,81,5.8,81,13C277.7,816.9,241.5,822.7,196.8,822.7 M196.8,796.8c-44.5,0-80.5,5.8-80.5,12.9c0,7.1,36,12.9,80.5,12.9
		c44.5,0,80.5-5.8,80.5-12.9C277.3,802.5,241.2,796.8,196.8,796.8"/>
	<path id="path240" inkscape:connector-curvature="0" class="st67" d="M196.8,822.6c-44.5,0-80.5-5.8-80.5-12.9
		c0-7.1,36-12.9,80.5-12.9c44.5,0,80.5,5.8,80.5,12.9C277.3,816.8,241.2,822.6,196.8,822.6 M196.8,796.8c-44.2,0-80,5.7-80,12.8
		c0,7.1,35.8,12.8,80,12.8c44.2,0,80-5.7,80-12.8C276.8,802.6,240.9,796.8,196.8,796.8"/>
	<path id="path242" inkscape:connector-curvature="0" class="st68" d="M196.8,822.5c-44.2,0-80-5.7-80-12.8c0-7.1,35.8-12.8,80-12.8
		c44.2,0,80,5.7,80,12.8C276.8,816.8,240.9,822.5,196.8,822.5 M196.8,796.9c-43.9,0-79.5,5.7-79.5,12.8c0,7.1,35.6,12.8,79.5,12.8
		c43.9,0,79.5-5.7,79.5-12.8C276.3,802.6,240.7,796.9,196.8,796.9"/>
	<path id="path244" inkscape:connector-curvature="0" class="st68" d="M196.8,822.4c-43.9,0-79.5-5.7-79.5-12.8
		c0-7,35.6-12.8,79.5-12.8c43.9,0,79.5,5.7,79.5,12.8C276.3,816.7,240.7,822.4,196.8,822.4 M196.8,797c-43.6,0-79,5.7-79,12.7
		c0,7,35.4,12.7,79,12.7c43.6,0,79-5.7,79-12.7C275.8,802.7,240.4,797,196.8,797"/>
	<path id="path246" inkscape:connector-curvature="0" class="st69" d="M196.8,822.4c-43.6,0-79-5.7-79-12.7c0-7,35.4-12.7,79-12.7
		c43.6,0,79,5.7,79,12.7C275.8,816.7,240.4,822.4,196.8,822.4 M196.8,797.1c-43.4,0-78.5,5.6-78.5,12.6c0,7,35.1,12.6,78.5,12.6
		c43.4,0,78.5-5.6,78.5-12.6C275.3,802.7,240.1,797.1,196.8,797.1"/>
	<path id="path248" inkscape:connector-curvature="0" class="st69" d="M196.8,822.3c-43.4,0-78.5-5.6-78.5-12.6
		c0-7,35.1-12.6,78.5-12.6c43.4,0,78.5,5.6,78.5,12.6C275.3,816.6,240.1,822.3,196.8,822.3 M196.8,797.2c-43.1,0-78,5.6-78,12.5
		c0,6.9,34.9,12.5,78,12.5c43.1,0,78-5.6,78-12.5C274.8,802.8,239.8,797.2,196.8,797.2"/>
	<path id="path250" inkscape:connector-curvature="0" class="st70" d="M196.8,822.2c-43.1,0-78-5.6-78-12.5c0-6.9,34.9-12.5,78-12.5
		c43.1,0,78,5.6,78,12.5C274.8,816.6,239.8,822.2,196.8,822.2 M196.8,797.2c-42.8,0-77.5,5.6-77.5,12.4c0,6.9,34.7,12.4,77.5,12.4
		c42.8,0,77.5-5.6,77.5-12.4C274.3,802.8,239.6,797.2,196.8,797.2"/>
	<path id="path252" inkscape:connector-curvature="0" class="st70" d="M196.8,822.1c-42.8,0-77.5-5.6-77.5-12.4
		c0-6.9,34.7-12.4,77.5-12.4c42.8,0,77.5,5.6,77.5,12.4C274.3,816.6,239.6,822.1,196.8,822.1 M196.8,797.3c-42.5,0-77,5.5-77,12.4
		c0,6.8,34.5,12.4,77,12.4c42.5,0,77-5.5,77-12.4C273.8,802.9,239.3,797.3,196.8,797.3"/>
	<path id="path254" inkscape:connector-curvature="0" class="st71" d="M196.8,822c-42.5,0-77-5.5-77-12.4c0-6.8,34.5-12.4,77-12.4
		c42.5,0,77,5.5,77,12.4C273.8,816.5,239.3,822,196.8,822 M196.8,797.4c-42.2,0-76.5,5.5-76.5,12.3c0,6.8,34.3,12.3,76.5,12.3
		c42.3,0,76.5-5.5,76.5-12.3C273.3,802.9,239,797.4,196.8,797.4"/>
	<path id="path256" inkscape:connector-curvature="0" class="st72" d="M196.8,822c-42.2,0-76.5-5.5-76.5-12.3
		c0-6.8,34.3-12.3,76.5-12.3c42.3,0,76.5,5.5,76.5,12.3C273.3,816.5,239,822,196.8,822 M196.8,797.5c-42,0-76,5.5-76,12.2
		c0,6.7,34,12.2,76,12.2c42,0,76-5.5,76-12.2C272.8,802.9,238.7,797.5,196.8,797.5"/>
	<path id="path258" inkscape:connector-curvature="0" class="st72" d="M196.8,821.9c-42,0-76-5.5-76-12.2c0-6.7,34-12.2,76-12.2
		c42,0,76,5.5,76,12.2C272.8,816.4,238.7,821.9,196.8,821.9 M196.8,797.6c-41.7,0-75.5,5.4-75.5,12.1c0,6.7,33.8,12.1,75.5,12.1
		c41.7,0,75.5-5.4,75.5-12.1C272.3,803,238.5,797.6,196.8,797.6"/>
	<path id="path260" inkscape:connector-curvature="0" class="st73" d="M196.8,821.8c-41.7,0-75.5-5.4-75.5-12.1
		c0-6.7,33.8-12.1,75.5-12.1c41.7,0,75.5,5.4,75.5,12.1C272.3,816.4,238.5,821.8,196.8,821.8 M196.8,797.6c-41.4,0-75,5.4-75,12
		c0,6.7,33.6,12,75,12c41.4,0,75-5.4,75-12C271.8,803,238.2,797.6,196.8,797.6"/>
	<path id="path262" inkscape:connector-curvature="0" class="st73" d="M196.8,821.7c-41.4,0-75-5.4-75-12c0-6.6,33.6-12,75-12
		c41.4,0,75,5.4,75,12C271.8,816.3,238.2,821.7,196.8,821.7 M196.8,797.7c-41.1,0-74.5,5.4-74.5,12c0,6.6,33.4,12,74.5,12
		c41.2,0,74.5-5.4,74.5-12C271.3,803.1,237.9,797.7,196.8,797.7"/>
	<path id="path264" inkscape:connector-curvature="0" class="st74" d="M196.8,821.6c-41.1,0-74.5-5.4-74.5-12c0-6.6,33.4-12,74.5-12
		c41.2,0,74.5,5.4,74.5,12C271.3,816.3,237.9,821.6,196.8,821.6 M196.8,797.8c-40.9,0-74,5.3-74,11.9c0,6.6,33.1,11.9,74,11.9
		c40.9,0,74-5.3,74-11.9C270.8,803.1,237.6,797.8,196.8,797.8"/>
	<path id="path266" inkscape:connector-curvature="0" class="st75" d="M196.8,821.6c-40.9,0-74-5.3-74-11.9c0-6.6,33.1-11.9,74-11.9
		c40.9,0,74,5.3,74,11.9C270.8,816.2,237.6,821.6,196.8,821.6 M196.8,797.9c-40.6,0-73.5,5.3-73.5,11.8c0,6.5,32.9,11.8,73.5,11.8
		c40.6,0,73.5-5.3,73.5-11.8C270.3,803.2,237.4,797.9,196.8,797.9"/>
	<path id="path268" inkscape:connector-curvature="0" class="st75" d="M196.8,821.5c-40.6,0-73.5-5.3-73.5-11.8
		c0-6.5,32.9-11.8,73.5-11.8c40.6,0,73.5,5.3,73.5,11.8C270.3,816.2,237.4,821.5,196.8,821.5 M196.8,798c-40.3,0-73,5.2-73,11.7
		c0,6.5,32.7,11.7,73,11.7c40.3,0,73-5.2,73-11.7C269.8,803.2,237.1,798,196.8,798"/>
	<path id="path270" inkscape:connector-curvature="0" class="st76" d="M196.8,821.4c-40.3,0-73-5.2-73-11.7c0-6.5,32.7-11.7,73-11.7
		c40.3,0,73,5.2,73,11.7C269.8,816.2,237.1,821.4,196.8,821.4 M196.8,798c-40,0-72.5,5.2-72.5,11.6c0,6.4,32.5,11.6,72.5,11.6
		c40.1,0,72.5-5.2,72.5-11.6C269.3,803.3,236.8,798,196.8,798"/>
	<path id="path272" inkscape:connector-curvature="0" class="st76" d="M196.8,821.3c-40,0-72.5-5.2-72.5-11.6
		c0-6.4,32.5-11.6,72.5-11.6c40.1,0,72.5,5.2,72.5,11.6C269.3,816.1,236.8,821.3,196.8,821.3 M196.8,798.1c-39.8,0-72,5.2-72,11.6
		c0,6.4,32.2,11.6,72,11.6c39.8,0,72-5.2,72-11.6C268.8,803.3,236.5,798.1,196.8,798.1"/>
	<path id="path274" inkscape:connector-curvature="0" class="st77" d="M196.8,821.2c-39.8,0-72-5.2-72-11.6c0-6.4,32.2-11.6,72-11.6
		c39.8,0,72,5.2,72,11.6C268.8,816.1,236.5,821.2,196.8,821.2 M196.8,798.2c-39.5,0-71.5,5.1-71.5,11.5c0,6.3,32,11.5,71.5,11.5
		c39.5,0,71.5-5.1,71.5-11.5C268.3,803.3,236.3,798.2,196.8,798.2"/>
	<path id="path276" inkscape:connector-curvature="0" class="st78" d="M196.8,821.2c-39.5,0-71.5-5.1-71.5-11.5
		c0-6.3,32-11.5,71.5-11.5c39.5,0,71.5,5.1,71.5,11.5C268.3,816,236.3,821.2,196.8,821.2 M196.8,798.3c-39.2,0-71,5.1-71,11.4
		c0,6.3,31.8,11.4,71,11.4c39.2,0,71-5.1,71-11.4C267.8,803.4,236,798.3,196.8,798.3"/>
	<path id="path278" inkscape:connector-curvature="0" class="st78" d="M196.8,821.1c-39.2,0-71-5.1-71-11.4c0-6.3,31.8-11.4,71-11.4
		c39.2,0,71,5.1,71,11.4C267.8,816,236,821.1,196.8,821.1 M196.8,798.4c-38.9,0-70.5,5.1-70.5,11.3c0,6.3,31.6,11.3,70.5,11.3
		c39,0,70.5-5.1,70.5-11.3C267.3,803.4,235.7,798.4,196.8,798.4"/>
	<path id="path280" inkscape:connector-curvature="0" class="st79" d="M196.8,821c-38.9,0-70.5-5.1-70.5-11.3
		c0-6.2,31.6-11.3,70.5-11.3c39,0,70.5,5.1,70.5,11.3C267.3,815.9,235.7,821,196.8,821 M196.8,798.4c-38.7,0-70,5-70,11.2
		c0,6.2,31.4,11.2,70,11.2c38.7,0,70-5,70-11.2C266.8,803.5,235.4,798.4,196.8,798.4"/>
	<path id="path282" inkscape:connector-curvature="0" class="st80" d="M196.8,820.9c-38.7,0-70-5-70-11.2c0-6.2,31.4-11.2,70-11.2
		c38.7,0,70,5,70,11.2C266.8,815.9,235.4,820.9,196.8,820.9 M196.8,798.5c-38.4,0-69.5,5-69.5,11.2c0,6.2,31.1,11.2,69.5,11.2
		c38.4,0,69.5-5,69.5-11.2C266.3,803.5,235.2,798.5,196.8,798.5"/>
	<path id="path284" inkscape:connector-curvature="0" class="st81" d="M196.8,820.8c-38.4,0-69.5-5-69.5-11.2
		c0-6.2,31.1-11.2,69.5-11.2c38.4,0,69.5,5,69.5,11.2C266.3,815.8,235.2,820.8,196.8,820.8 M196.8,798.6c-38.1,0-69,5-69,11.1
		c0,6.1,30.9,11.1,69,11.1s69-5,69-11.1C265.8,803.6,234.9,798.6,196.8,798.6"/>
	<path id="path286" inkscape:connector-curvature="0" class="st82" d="M196.8,820.8c-38.1,0-69-5-69-11.1c0-6.1,30.9-11.1,69-11.1
		s69,5,69,11.1C265.8,815.8,234.9,820.8,196.8,820.8 M196.8,798.7c-37.8,0-68.5,4.9-68.5,11c0,6.1,30.7,11,68.5,11
		c37.9,0,68.5-4.9,68.5-11C265.3,803.6,234.6,798.7,196.8,798.7"/>
	<path id="path288" inkscape:connector-curvature="0" class="st83" d="M196.8,820.7c-37.8,0-68.5-4.9-68.5-11c0-6.1,30.7-11,68.5-11
		c37.9,0,68.5,4.9,68.5,11C265.3,815.8,234.6,820.7,196.8,820.7 M196.8,798.8c-37.6,0-68,4.9-68,10.9c0,6,30.5,10.9,68,10.9
		s68-4.9,68-10.9C264.8,803.6,234.3,798.8,196.8,798.8"/>
	<path id="path290" inkscape:connector-curvature="0" class="st83" d="M196.8,820.6c-37.6,0-68-4.9-68-10.9c0-6,30.5-10.9,68-10.9
		s68,4.9,68,10.9C264.8,815.7,234.3,820.6,196.8,820.6 M196.8,798.8c-37.3,0-67.5,4.9-67.5,10.8c0,6,30.2,10.8,67.5,10.8
		c37.3,0,67.5-4.9,67.5-10.8C264.3,803.7,234.1,798.8,196.8,798.8"/>
	<path id="path292" inkscape:connector-curvature="0" class="st84" d="M196.8,820.5c-37.3,0-67.5-4.9-67.5-10.8
		c0-6,30.2-10.8,67.5-10.8c37.3,0,67.5,4.9,67.5,10.8C264.3,815.7,234.1,820.5,196.8,820.5 M196.8,798.9c-37,0-67,4.8-67,10.8
		c0,5.9,30,10.8,67,10.8s67-4.8,67-10.8C263.8,803.7,233.8,798.9,196.8,798.9"/>
	<path id="path294" inkscape:connector-curvature="0" class="st85" d="M196.8,820.4c-37,0-67-4.8-67-10.8c0-5.9,30-10.8,67-10.8
		s67,4.8,67,10.8C263.8,815.6,233.8,820.4,196.8,820.4 M196.8,799c-36.7,0-66.5,4.8-66.5,10.7c0,5.9,29.8,10.7,66.5,10.7
		c36.7,0,66.5-4.8,66.5-10.7C263.3,803.8,233.5,799,196.8,799"/>
	<path id="path296" inkscape:connector-curvature="0" class="st86" d="M196.8,820.4c-36.7,0-66.5-4.8-66.5-10.7
		c0-5.9,29.8-10.7,66.5-10.7c36.7,0,66.5,4.8,66.5,10.7C263.3,815.6,233.5,820.4,196.8,820.4 M196.8,799.1c-36.5,0-66,4.7-66,10.6
		c0,5.9,29.6,10.6,66,10.6s66-4.7,66-10.6C262.8,803.8,233.2,799.1,196.8,799.1"/>
	<path id="path298" inkscape:connector-curvature="0" class="st86" d="M196.8,820.3c-36.5,0-66-4.7-66-10.6c0-5.9,29.6-10.6,66-10.6
		s66,4.7,66,10.6C262.8,815.5,233.2,820.3,196.8,820.3 M196.8,799.2c-36.2,0-65.5,4.7-65.5,10.5c0,5.8,29.3,10.5,65.5,10.5
		c36.2,0,65.5-4.7,65.5-10.5C262.3,803.9,233,799.2,196.8,799.2"/>
	<path id="path300" inkscape:connector-curvature="0" class="st87" d="M196.8,820.2c-36.2,0-65.5-4.7-65.5-10.5
		c0-5.8,29.3-10.5,65.5-10.5c36.2,0,65.5,4.7,65.5,10.5C262.3,815.5,233,820.2,196.8,820.2 M196.8,799.2c-35.9,0-65,4.7-65,10.4
		c0,5.8,29.1,10.4,65,10.4c35.9,0,65-4.7,65-10.4C261.8,803.9,232.7,799.2,196.8,799.2"/>
	<path id="path302" inkscape:connector-curvature="0" class="st87" d="M196.8,820.1c-35.9,0-65-4.7-65-10.4c0-5.8,29.1-10.4,65-10.4
		c35.9,0,65,4.7,65,10.4C261.8,815.4,232.7,820.1,196.8,820.1 M196.8,799.3c-35.6,0-64.5,4.6-64.5,10.4c0,5.7,28.9,10.4,64.5,10.4
		c35.6,0,64.5-4.6,64.5-10.4C261.3,804,232.4,799.3,196.8,799.3"/>
	<path id="path304" inkscape:connector-curvature="0" class="st88" d="M196.8,820c-35.6,0-64.5-4.6-64.5-10.4
		c0-5.7,28.9-10.4,64.5-10.4c35.6,0,64.5,4.6,64.5,10.4C261.3,815.4,232.4,820,196.8,820 M196.8,799.4c-35.4,0-64,4.6-64,10.3
		c0,5.7,28.7,10.3,64,10.3s64-4.6,64-10.3C260.8,804,232.1,799.4,196.8,799.4"/>
	<path id="path306" inkscape:connector-curvature="0" class="st88" d="M196.8,820c-35.4,0-64-4.6-64-10.3c0-5.7,28.7-10.3,64-10.3
		s64,4.6,64,10.3C260.8,815.4,232.1,820,196.8,820 M196.8,799.5c-35.1,0-63.5,4.6-63.5,10.2c0,5.6,28.5,10.2,63.5,10.2
		c35.1,0,63.5-4.6,63.5-10.2C260.3,804,231.9,799.5,196.8,799.5"/>
	<path id="path308" inkscape:connector-curvature="0" class="st89" d="M196.8,819.9c-35.1,0-63.5-4.6-63.5-10.2
		c0-5.6,28.5-10.2,63.5-10.2c35.1,0,63.5,4.6,63.5,10.2C260.3,815.3,231.9,819.9,196.8,819.9 M196.8,799.6c-34.8,0-63,4.5-63,10.1
		c0,5.6,28.2,10.1,63,10.1c34.8,0,63-4.5,63-10.1C259.8,804.1,231.6,799.6,196.8,799.6"/>
	<path id="path310" inkscape:connector-curvature="0" class="st90" d="M196.8,819.8c-34.8,0-63-4.5-63-10.1c0-5.6,28.2-10.1,63-10.1
		c34.8,0,63,4.5,63,10.1C259.8,815.3,231.6,819.8,196.8,819.8 M196.8,799.6c-34.5,0-62.5,4.5-62.5,10c0,5.5,28,10,62.5,10
		c34.5,0,62.6-4.5,62.6-10C259.3,804.1,231.3,799.6,196.8,799.6"/>
	<path id="path312" inkscape:connector-curvature="0" class="st91" d="M196.8,819.7c-34.5,0-62.5-4.5-62.5-10c0-5.5,28-10,62.5-10
		c34.5,0,62.6,4.5,62.6,10C259.3,815.2,231.3,819.7,196.8,819.7 M196.8,799.7c-34.3,0-62,4.5-62,10c0,5.5,27.8,10,62,10
		c34.3,0,62.1-4.5,62.1-10C258.8,804.2,231,799.7,196.8,799.7"/>
	<path id="path314" inkscape:connector-curvature="0" class="st92" d="M196.8,819.6c-34.3,0-62-4.5-62-10c0-5.5,27.8-10,62-10
		c34.3,0,62.1,4.5,62.1,10C258.8,815.2,231,819.6,196.8,819.6 M196.8,799.8c-34,0-61.6,4.4-61.6,9.9c0,5.5,27.6,9.9,61.6,9.9
		c34,0,61.6-4.4,61.6-9.9C258.3,804.2,230.8,799.8,196.8,799.8"/>
	<path id="path316" inkscape:connector-curvature="0" class="st92" d="M196.8,819.6c-34,0-61.6-4.4-61.6-9.9
		c0-5.5,27.6-9.9,61.6-9.9c34,0,61.6,4.4,61.6,9.9C258.3,815.1,230.8,819.6,196.8,819.6 M196.8,799.9c-33.7,0-61.1,4.4-61.1,9.8
		c0,5.4,27.3,9.8,61.1,9.8c33.7,0,61.1-4.4,61.1-9.8C257.8,804.3,230.5,799.9,196.8,799.9"/>
	<path id="path318" inkscape:connector-curvature="0" class="st93" d="M196.8,819.5c-33.7,0-61.1-4.4-61.1-9.8
		c0-5.4,27.3-9.8,61.1-9.8c33.7,0,61.1,4.4,61.1,9.8C257.8,815.1,230.5,819.5,196.8,819.5 M196.8,800c-33.4,0-60.6,4.4-60.6,9.7
		c0,5.4,27.1,9.7,60.6,9.7c33.4,0,60.6-4.3,60.6-9.7C257.3,804.3,230.2,800,196.8,800"/>
	<path id="path320" inkscape:connector-curvature="0" class="st94" d="M196.8,819.4c-33.4,0-60.6-4.3-60.6-9.7
		c0-5.4,27.1-9.7,60.6-9.7c33.4,0,60.6,4.4,60.6,9.7C257.3,815.1,230.2,819.4,196.8,819.4 M196.8,800c-33.2,0-60.1,4.3-60.1,9.6
		c0,5.3,26.9,9.6,60.1,9.6c33.2,0,60.1-4.3,60.1-9.6C256.8,804.4,229.9,800,196.8,800"/>
	<path id="path322" inkscape:connector-curvature="0" class="st95" d="M196.8,819.3c-33.2,0-60.1-4.3-60.1-9.6
		c0-5.3,26.9-9.6,60.1-9.6c33.2,0,60.1,4.3,60.1,9.6C256.8,815,229.9,819.3,196.8,819.3 M196.8,800.1c-32.9,0-59.6,4.3-59.6,9.6
		c0,5.3,26.7,9.6,59.6,9.6c32.9,0,59.6-4.3,59.6-9.6C256.3,804.4,229.7,800.1,196.8,800.1"/>
	<path id="path324" inkscape:connector-curvature="0" class="st96" d="M196.8,819.2c-32.9,0-59.6-4.3-59.6-9.6
		c0-5.3,26.7-9.6,59.6-9.6c32.9,0,59.6,4.3,59.6,9.6C256.3,815,229.7,819.2,196.8,819.2 M196.8,800.2c-32.6,0-59.1,4.2-59.1,9.5
		c0,5.2,26.4,9.5,59.1,9.5c32.6,0,59.1-4.2,59.1-9.5C255.8,804.4,229.4,800.2,196.8,800.2"/>
	<path id="path326" inkscape:connector-curvature="0" class="st97" d="M196.8,819.2c-32.6,0-59.1-4.2-59.1-9.5
		c0-5.2,26.4-9.5,59.1-9.5c32.6,0,59.1,4.2,59.1,9.5C255.8,814.9,229.4,819.2,196.8,819.2 M196.8,800.3c-32.3,0-58.6,4.2-58.6,9.4
		c0,5.2,26.2,9.4,58.6,9.4c32.3,0,58.6-4.2,58.6-9.4C255.3,804.5,229.1,800.3,196.8,800.3"/>
	<path id="path328" inkscape:connector-curvature="0" class="st98" d="M196.8,819.1c-32.3,0-58.6-4.2-58.6-9.4
		c0-5.2,26.2-9.4,58.6-9.4c32.3,0,58.6,4.2,58.6,9.4C255.3,814.9,229.1,819.1,196.8,819.1 M196.8,800.4c-32.1,0-58.1,4.2-58.1,9.3
		c0,5.2,26,9.3,58.1,9.3c32.1,0,58.1-4.2,58.1-9.3C254.8,804.5,228.8,800.4,196.8,800.4"/>
	<path id="path330" inkscape:connector-curvature="0" class="st98" d="M196.8,819c-32.1,0-58.1-4.2-58.1-9.3c0-5.1,26-9.3,58.1-9.3
		c32.1,0,58.1,4.2,58.1,9.3C254.8,814.8,228.8,819,196.8,819 M196.8,800.4c-31.8,0-57.6,4.1-57.6,9.2c0,5.1,25.8,9.2,57.6,9.2
		c31.8,0,57.6-4.1,57.6-9.2C254.3,804.6,228.6,800.4,196.8,800.4"/>
	<path id="path332" inkscape:connector-curvature="0" class="st99" d="M196.8,818.9c-31.8,0-57.6-4.1-57.6-9.2
		c0-5.1,25.8-9.2,57.6-9.2c31.8,0,57.6,4.1,57.6,9.2C254.3,814.8,228.6,818.9,196.8,818.9 M196.8,800.5c-31.5,0-57.1,4.1-57.1,9.2
		c0,5.1,25.5,9.2,57.1,9.2c31.5,0,57.1-4.1,57.1-9.2C253.8,804.6,228.3,800.5,196.8,800.5"/>
	<path id="path334" inkscape:connector-curvature="0" class="st100" d="M196.8,818.8c-31.5,0-57.1-4.1-57.1-9.2
		c0-5.1,25.5-9.2,57.1-9.2c31.5,0,57.1,4.1,57.1,9.2C253.8,814.7,228.3,818.8,196.8,818.8 M196.8,800.6c-31.2,0-56.6,4.1-56.6,9.1
		c0,5,25.3,9.1,56.6,9.1c31.2,0,56.6-4.1,56.6-9.1C253.3,804.7,228,800.6,196.8,800.6"/>
	<path id="path336" inkscape:connector-curvature="0" class="st101" d="M196.8,818.8c-31.2,0-56.6-4.1-56.6-9.1
		c0-5,25.3-9.1,56.6-9.1c31.2,0,56.6,4.1,56.6,9.1C253.3,814.7,228,818.8,196.8,818.8 M196.8,800.7c-31,0-56.1,4-56.1,9
		c0,5,25.1,9,56.1,9s56.1-4,56.1-9C252.8,804.7,227.7,800.7,196.8,800.7"/>
	<path id="path338" inkscape:connector-curvature="0" class="st102" d="M196.8,818.7c-31,0-56.1-4-56.1-9c0-5,25.1-9,56.1-9
		s56.1,4,56.1,9C252.8,814.7,227.7,818.7,196.8,818.7 M196.8,800.8c-30.7,0-55.6,4-55.6,8.9c0,4.9,24.9,8.9,55.6,8.9
		c30.7,0,55.6-4,55.6-8.9C252.3,804.8,227.5,800.8,196.8,800.8"/>
	<path id="path340" inkscape:connector-curvature="0" class="st103" d="M196.8,818.6c-30.7,0-55.6-4-55.6-8.9
		c0-4.9,24.9-8.9,55.6-8.9c30.7,0,55.6,4,55.6,8.9C252.3,814.6,227.5,818.6,196.8,818.6 M196.8,800.8c-30.4,0-55.1,4-55.1,8.8
		c0,4.9,24.7,8.8,55.1,8.8c30.4,0,55.1-4,55.1-8.8S227.2,800.8,196.8,800.8"/>
	<path id="path342" inkscape:connector-curvature="0" class="st104" d="M196.8,818.5c-30.4,0-55.1-4-55.1-8.8s24.7-8.8,55.1-8.8
		c30.4,0,55.1,4,55.1,8.8C251.8,814.6,227.2,818.5,196.8,818.5 M196.8,800.9c-30.1,0-54.6,3.9-54.6,8.8c0,4.8,24.4,8.8,54.6,8.8
		s54.6-3.9,54.6-8.8C251.3,804.8,226.9,800.9,196.8,800.9"/>
	<path id="path344" inkscape:connector-curvature="0" class="st105" d="M196.8,818.4c-30.1,0-54.6-3.9-54.6-8.8
		c0-4.8,24.4-8.8,54.6-8.8s54.6,3.9,54.6,8.8C251.3,814.5,226.9,818.4,196.8,818.4 M196.8,801c-29.9,0-54.1,3.9-54.1,8.7
		c0,4.8,24.2,8.7,54.1,8.7s54.1-3.9,54.1-8.7C250.8,804.9,226.6,801,196.8,801"/>
	<path id="path346" inkscape:connector-curvature="0" class="st106" d="M196.8,818.4c-29.9,0-54.1-3.9-54.1-8.7
		c0-4.8,24.2-8.7,54.1-8.7s54.1,3.9,54.1,8.7C250.8,814.5,226.6,818.4,196.8,818.4 M196.8,801.1c-29.6,0-53.6,3.9-53.6,8.6
		c0,4.8,24,8.6,53.6,8.6c29.6,0,53.6-3.8,53.6-8.6C250.3,804.9,226.4,801.1,196.8,801.1"/>
	<path id="path348" inkscape:connector-curvature="0" class="st107" d="M196.8,818.3c-29.6,0-53.6-3.8-53.6-8.6
		c0-4.7,24-8.6,53.6-8.6c29.6,0,53.6,3.9,53.6,8.6C250.3,814.4,226.4,818.3,196.8,818.3 M196.8,801.2c-29.3,0-53.1,3.8-53.1,8.5
		c0,4.7,23.8,8.5,53.1,8.5c29.3,0,53.1-3.8,53.1-8.5C249.8,805,226.1,801.2,196.8,801.2"/>
	<path id="path350" inkscape:connector-curvature="0" class="st108" d="M196.8,818.2c-29.3,0-53.1-3.8-53.1-8.5
		c0-4.7,23.8-8.5,53.1-8.5c29.3,0,53.1,3.8,53.1,8.5C249.8,814.4,226.1,818.2,196.8,818.2 M196.8,801.2c-29,0-52.6,3.8-52.6,8.4
		c0,4.7,23.5,8.4,52.6,8.4s52.6-3.8,52.6-8.4C249.3,805,225.8,801.2,196.8,801.2"/>
	<path id="path352" inkscape:connector-curvature="0" class="st109" d="M196.8,818.1c-29,0-52.6-3.8-52.6-8.4
		c0-4.7,23.5-8.4,52.6-8.4s52.6,3.8,52.6,8.4C249.3,814.3,225.8,818.1,196.8,818.1 M196.8,801.3c-28.8,0-52.1,3.7-52.1,8.4
		c0,4.6,23.3,8.4,52.1,8.4c28.8,0,52.1-3.7,52.1-8.4C248.8,805.1,225.5,801.3,196.8,801.3"/>
	<path id="path354" inkscape:connector-curvature="0" class="st110" d="M196.8,818c-28.8,0-52.1-3.7-52.1-8.4
		c0-4.6,23.3-8.4,52.1-8.4c28.8,0,52.1,3.7,52.1,8.4C248.8,814.3,225.5,818,196.8,818 M196.8,801.4c-28.5,0-51.6,3.7-51.6,8.3
		c0,4.6,23.1,8.3,51.6,8.3c28.5,0,51.6-3.7,51.6-8.3C248.3,805.1,225.3,801.4,196.8,801.4"/>
	<path id="path356" inkscape:connector-curvature="0" class="st111" d="M196.8,818c-28.5,0-51.6-3.7-51.6-8.3
		c0-4.6,23.1-8.3,51.6-8.3c28.5,0,51.6,3.7,51.6,8.3C248.3,814.3,225.3,818,196.8,818 M196.8,801.5c-28.2,0-51.1,3.7-51.1,8.2
		c0,4.5,22.9,8.2,51.1,8.2c28.2,0,51.1-3.7,51.1-8.2C247.8,805.2,225,801.5,196.8,801.5"/>
	<path id="path358" inkscape:connector-curvature="0" class="st111" d="M196.8,817.9c-28.2,0-51.1-3.7-51.1-8.2
		c0-4.5,22.9-8.2,51.1-8.2c28.2,0,51.1,3.7,51.1,8.2C247.8,814.2,225,817.9,196.8,817.9 M196.8,801.6c-27.9,0-50.6,3.6-50.6,8.1
		c0,4.5,22.6,8.1,50.6,8.1s50.6-3.6,50.6-8.1C247.3,805.2,224.7,801.6,196.8,801.6"/>
	<path id="path360" inkscape:connector-curvature="0" class="st112" d="M196.8,817.8c-27.9,0-50.6-3.6-50.6-8.1
		c0-4.5,22.6-8.1,50.6-8.1s50.6,3.6,50.6,8.1C247.3,814.2,224.7,817.8,196.8,817.8 M196.8,801.6c-27.7,0-50.1,3.6-50.1,8
		c0,4.4,22.4,8,50.1,8c27.7,0,50.1-3.6,50.1-8C246.9,805.2,224.4,801.6,196.8,801.6"/>
	<path id="path362" inkscape:connector-curvature="0" class="st113" d="M196.8,817.7c-27.7,0-50.1-3.6-50.1-8c0-4.4,22.4-8,50.1-8
		c27.7,0,50.1,3.6,50.1,8C246.9,814.1,224.4,817.7,196.8,817.7 M196.8,801.7c-27.4,0-49.6,3.6-49.6,8c0,4.4,22.2,8,49.6,8
		c27.4,0,49.6-3.6,49.6-8C246.4,805.3,224.1,801.7,196.8,801.7"/>
	<path id="path364" inkscape:connector-curvature="0" class="st114" d="M196.8,817.6c-27.4,0-49.6-3.6-49.6-8c0-4.4,22.2-8,49.6-8
		c27.4,0,49.6,3.6,49.6,8C246.4,814.1,224.1,817.6,196.8,817.6 M196.8,801.8c-27.1,0-49.1,3.5-49.1,7.9c0,4.4,22,7.9,49.1,7.9
		c27.1,0,49.1-3.5,49.1-7.9C245.9,805.3,223.9,801.8,196.8,801.8"/>
	<path id="path366" inkscape:connector-curvature="0" class="st115" d="M196.8,817.6c-27.1,0-49.1-3.5-49.1-7.9
		c0-4.3,22-7.9,49.1-7.9c27.1,0,49.1,3.5,49.1,7.9C245.9,814,223.9,817.6,196.8,817.6 M196.8,801.9c-26.8,0-48.6,3.5-48.6,7.8
		c0,4.3,21.8,7.8,48.6,7.8c26.8,0,48.6-3.5,48.6-7.8C245.4,805.4,223.6,801.9,196.8,801.9"/>
	<path id="path368" inkscape:connector-curvature="0" class="st116" d="M196.8,817.5c-26.8,0-48.6-3.5-48.6-7.8
		c0-4.3,21.8-7.8,48.6-7.8c26.8,0,48.6,3.5,48.6,7.8C245.4,814,223.6,817.5,196.8,817.5 M196.8,802c-26.6,0-48.1,3.5-48.1,7.7
		c0,4.3,21.5,7.7,48.1,7.7c26.6,0,48.1-3.5,48.1-7.7C244.9,805.4,223.3,802,196.8,802"/>
	<path id="path370" inkscape:connector-curvature="0" class="st117" d="M196.8,817.4c-26.6,0-48.1-3.5-48.1-7.7
		c0-4.3,21.5-7.7,48.1-7.7c26.6,0,48.1,3.5,48.1,7.7C244.9,813.9,223.3,817.4,196.8,817.4 M196.8,802c-26.3,0-47.6,3.4-47.6,7.6
		c0,4.2,21.3,7.6,47.6,7.6c26.3,0,47.6-3.4,47.6-7.6C244.4,805.5,223,802,196.8,802"/>
	<path id="path372" inkscape:connector-curvature="0" class="st118" d="M196.8,817.3c-26.3,0-47.6-3.4-47.6-7.6
		c0-4.2,21.3-7.6,47.6-7.6c26.3,0,47.6,3.4,47.6,7.6C244.4,813.9,223,817.3,196.8,817.3 M196.8,802.1c-26,0-47.1,3.4-47.1,7.6
		c0,4.2,21.1,7.6,47.1,7.6c26,0,47.1-3.4,47.1-7.6C243.9,805.5,222.8,802.1,196.8,802.1"/>
	<path id="path374" inkscape:connector-curvature="0" class="st119" d="M196.8,817.2c-26,0-47.1-3.4-47.1-7.6
		c0-4.2,21.1-7.6,47.1-7.6c26,0,47.1,3.4,47.1,7.6C243.9,813.9,222.8,817.2,196.8,817.2 M196.8,802.2c-25.7,0-46.6,3.3-46.6,7.5
		c0,4.1,20.9,7.5,46.6,7.5c25.7,0,46.6-3.4,46.6-7.5C243.4,805.5,222.5,802.2,196.8,802.2"/>
	<path id="path376" inkscape:connector-curvature="0" class="st120" d="M196.8,817.2c-25.7,0-46.6-3.4-46.6-7.5
		c0-4.1,20.9-7.5,46.6-7.5c25.7,0,46.6,3.3,46.6,7.5C243.4,813.8,222.5,817.2,196.8,817.2 M196.8,802.3c-25.5,0-46.1,3.3-46.1,7.4
		c0,4.1,20.6,7.4,46.1,7.4c25.5,0,46.1-3.3,46.1-7.4C242.9,805.6,222.2,802.3,196.8,802.3"/>
	<path id="path378" inkscape:connector-curvature="0" class="st121" d="M196.8,817.1c-25.5,0-46.1-3.3-46.1-7.4
		c0-4.1,20.6-7.4,46.1-7.4c25.5,0,46.1,3.3,46.1,7.4C242.9,813.8,222.2,817.1,196.8,817.1 M196.8,802.4c-25.2,0-45.6,3.3-45.6,7.3
		c0,4,20.4,7.3,45.6,7.3c25.2,0,45.6-3.3,45.6-7.3S221.9,802.4,196.8,802.4"/>
	<path id="path380" inkscape:connector-curvature="0" class="st122" d="M196.8,817c-25.2,0-45.6-3.3-45.6-7.3s20.4-7.3,45.6-7.3
		c25.2,0,45.6,3.3,45.6,7.3C242.4,813.7,221.9,817,196.8,817 M196.8,802.4c-24.9,0-45.1,3.2-45.1,7.2s20.2,7.2,45.1,7.2
		c24.9,0,45.1-3.2,45.1-7.2S221.7,802.4,196.8,802.4"/>
	<path id="path382" inkscape:connector-curvature="0" class="st122" d="M196.8,816.9c-24.9,0-45.1-3.2-45.1-7.2s20.2-7.2,45.1-7.2
		c24.9,0,45.1,3.2,45.1,7.2S221.7,816.9,196.8,816.9 M196.8,802.5c-24.6,0-44.6,3.2-44.6,7.2c0,4,20,7.2,44.6,7.2
		c24.6,0,44.6-3.2,44.6-7.2C241.4,805.7,221.4,802.5,196.8,802.5"/>
	<path id="path384" inkscape:connector-curvature="0" class="st123" d="M196.8,816.8c-24.6,0-44.6-3.2-44.6-7.2c0-4,20-7.2,44.6-7.2
		c24.6,0,44.6,3.2,44.6,7.2C241.4,813.6,221.4,816.8,196.8,816.8 M196.8,802.6c-24.4,0-44.1,3.2-44.1,7.1c0,3.9,19.7,7.1,44.1,7.1
		c24.4,0,44.1-3.2,44.1-7.1C240.9,805.8,221.1,802.6,196.8,802.6"/>
	<path id="path386" inkscape:connector-curvature="0" class="st124" d="M196.8,816.8c-24.4,0-44.1-3.2-44.1-7.1
		c0-3.9,19.7-7.1,44.1-7.1c24.4,0,44.1,3.2,44.1,7.1C240.9,813.6,221.1,816.8,196.8,816.8 M196.8,802.7c-24.1,0-43.6,3.1-43.6,7
		c0,3.9,19.5,7,43.6,7c24.1,0,43.6-3.1,43.6-7C240.4,805.8,220.8,802.7,196.8,802.7"/>
	<path id="path388" inkscape:connector-curvature="0" class="st125" d="M196.8,816.7c-24.1,0-43.6-3.1-43.6-7c0-3.9,19.5-7,43.6-7
		c24.1,0,43.6,3.1,43.6,7C240.4,813.5,220.8,816.7,196.8,816.7 M196.8,802.8c-23.8,0-43.1,3.1-43.1,6.9c0,3.8,19.3,6.9,43.1,6.9
		c23.8,0,43.1-3.1,43.1-6.9C239.9,805.9,220.6,802.8,196.8,802.8"/>
	<path id="path390" inkscape:connector-curvature="0" class="st126" d="M196.8,816.6c-23.8,0-43.1-3.1-43.1-6.9
		c0-3.8,19.3-6.9,43.1-6.9c23.8,0,43.1,3.1,43.1,6.9C239.9,813.5,220.6,816.6,196.8,816.6 M196.8,802.8c-23.5,0-42.6,3.1-42.6,6.8
		s19.1,6.8,42.6,6.8c23.5,0,42.6-3.1,42.6-6.8S220.3,802.8,196.8,802.8"/>
	<path id="path392" inkscape:connector-curvature="0" class="st126" d="M196.8,816.5c-23.5,0-42.6-3.1-42.6-6.8s19.1-6.8,42.6-6.8
		c23.5,0,42.6,3.1,42.6,6.8S220.3,816.5,196.8,816.5 M196.8,802.9c-23.3,0-42.1,3-42.1,6.8c0,3.7,18.9,6.8,42.1,6.8
		c23.3,0,42.1-3,42.1-6.8C238.9,805.9,220,802.9,196.8,802.9"/>
	<path id="path394" inkscape:connector-curvature="0" class="st127" d="M196.8,816.4c-23.3,0-42.1-3-42.1-6.8
		c0-3.7,18.9-6.8,42.1-6.8c23.3,0,42.1,3,42.1,6.8C238.9,813.4,220,816.4,196.8,816.4 M196.8,803c-23,0-41.6,3-41.6,6.7
		c0,3.7,18.6,6.7,41.6,6.7c23,0,41.6-3,41.6-6.7S219.7,803,196.8,803"/>
	<path id="path396" inkscape:connector-curvature="0" class="st128" d="M196.8,816.4c-23,0-41.6-3-41.6-6.7s18.6-6.7,41.6-6.7
		c23,0,41.6,3,41.6,6.7C238.4,813.4,219.7,816.4,196.8,816.4 M196.8,803.1c-22.7,0-41.1,3-41.1,6.6c0,3.6,18.4,6.6,41.1,6.6
		c22.7,0,41.1-3,41.1-6.6C237.9,806,219.5,803.1,196.8,803.1"/>
	<path id="path398" inkscape:connector-curvature="0" class="st129" d="M196.8,816.3c-22.7,0-41.1-3-41.1-6.6
		c0-3.6,18.4-6.6,41.1-6.6c22.7,0,41.1,3,41.1,6.6C237.9,813.3,219.5,816.3,196.8,816.3 M196.8,803.2c-22.4,0-40.6,2.9-40.6,6.5
		c0,3.6,18.2,6.5,40.6,6.5c22.4,0,40.6-2.9,40.6-6.5C237.4,806.1,219.2,803.2,196.8,803.2"/>
	<path id="path400" inkscape:connector-curvature="0" class="st129" d="M196.8,816.2c-22.4,0-40.6-2.9-40.6-6.5
		c0-3.6,18.2-6.5,40.6-6.5c22.4,0,40.6,2.9,40.6,6.5C237.4,813.3,219.2,816.2,196.8,816.2 M196.8,803.2c-22.2,0-40.1,2.9-40.1,6.4
		c0,3.6,18,6.4,40.1,6.4c22.2,0,40.1-2.9,40.1-6.4C236.9,806.1,218.9,803.2,196.8,803.2"/>
	<path id="path402" inkscape:connector-curvature="0" class="st130" d="M196.8,816.1c-22.2,0-40.1-2.9-40.1-6.4
		c0-3.6,18-6.4,40.1-6.4c22.2,0,40.1,2.9,40.1,6.4C236.9,813.2,218.9,816.1,196.8,816.1 M196.8,803.3c-21.9,0-39.6,2.8-39.6,6.4
		c0,3.5,17.7,6.4,39.6,6.4c21.9,0,39.6-2.8,39.6-6.4C236.4,806.2,218.6,803.3,196.8,803.3"/>
	<path id="path404" inkscape:connector-curvature="0" class="st131" d="M196.8,816c-21.9,0-39.6-2.8-39.6-6.4
		c0-3.5,17.7-6.4,39.6-6.4c21.9,0,39.6,2.8,39.6,6.4C236.4,813.2,218.6,816,196.8,816 M196.8,803.4c-21.6,0-39.1,2.8-39.1,6.3
		c0,3.5,17.5,6.3,39.1,6.3s39.1-2.8,39.1-6.3C235.9,806.2,218.4,803.4,196.8,803.4"/>
	<path id="path406" inkscape:connector-curvature="0" class="st131" d="M196.8,816c-21.6,0-39.1-2.8-39.1-6.3
		c0-3.5,17.5-6.3,39.1-6.3s39.1,2.8,39.1,6.3C235.9,813.2,218.4,816,196.8,816 M196.8,803.5c-21.3,0-38.6,2.8-38.6,6.2
		c0,3.4,17.3,6.2,38.6,6.2c21.3,0,38.6-2.8,38.6-6.2C235.4,806.3,218.1,803.5,196.8,803.5"/>
	<path id="path408" inkscape:connector-curvature="0" class="st132" d="M196.8,815.9c-21.3,0-38.6-2.8-38.6-6.2
		c0-3.4,17.3-6.2,38.6-6.2c21.3,0,38.6,2.8,38.6,6.2C235.4,813.1,218.1,815.9,196.8,815.9 M196.8,803.6c-21.1,0-38.1,2.7-38.1,6.1
		s17.1,6.1,38.1,6.1c21.1,0,38.1-2.7,38.1-6.1S217.8,803.6,196.8,803.6"/>
	<path id="path410" inkscape:connector-curvature="0" class="st132" d="M196.8,815.8c-21.1,0-38.1-2.7-38.1-6.1s17.1-6.1,38.1-6.1
		c21.1,0,38.1,2.7,38.1,6.1S217.8,815.8,196.8,815.8 M196.8,803.6c-20.8,0-37.6,2.7-37.6,6c0,3.3,16.8,6,37.6,6
		c20.8,0,37.6-2.7,37.6-6C234.4,806.3,217.5,803.6,196.8,803.6"/>
	<path id="path412" inkscape:connector-curvature="0" class="st133" d="M196.8,815.7c-20.8,0-37.6-2.7-37.6-6c0-3.3,16.8-6,37.6-6
		c20.8,0,37.6,2.7,37.6,6C234.4,813,217.5,815.7,196.8,815.7 M196.8,803.7c-20.5,0-37.1,2.7-37.1,6s16.6,6,37.1,6s37.1-2.7,37.1-6
		C233.9,806.4,217.3,803.7,196.8,803.7"/>
	<path id="path414" inkscape:connector-curvature="0" class="st134" d="M196.8,815.6c-20.5,0-37.1-2.7-37.1-6c0-3.3,16.6-6,37.1-6
		s37.1,2.7,37.1,6S217.3,815.6,196.8,815.6 M196.8,803.8c-20.2,0-36.6,2.6-36.6,5.9c0,3.2,16.4,5.9,36.6,5.9
		c20.2,0,36.6-2.6,36.6-5.9C233.4,806.4,217,803.8,196.8,803.8"/>
	<path id="path416" inkscape:connector-curvature="0" class="st134" d="M196.8,815.6c-20.2,0-36.6-2.6-36.6-5.9
		c0-3.2,16.4-5.9,36.6-5.9c20.2,0,36.6,2.6,36.6,5.9C233.4,812.9,217,815.6,196.8,815.6 M196.8,803.9c-20,0-36.1,2.6-36.1,5.8
		c0,3.2,16.2,5.8,36.1,5.8c20,0,36.1-2.6,36.1-5.8C232.9,806.5,216.7,803.9,196.8,803.9"/>
	<path id="path418" inkscape:connector-curvature="0" class="st135" d="M196.8,815.5c-20,0-36.1-2.6-36.1-5.8
		c0-3.2,16.2-5.8,36.1-5.8c20,0,36.1,2.6,36.1,5.8C232.9,812.9,216.7,815.5,196.8,815.5 M196.8,804c-19.7,0-35.6,2.6-35.6,5.7
		c0,3.2,16,5.7,35.6,5.7s35.6-2.6,35.6-5.7C232.4,806.5,216.4,804,196.8,804"/>
	<path id="path420" inkscape:connector-curvature="0" class="st135" d="M196.8,815.4c-19.7,0-35.6-2.6-35.6-5.7
		c0-3.2,16-5.7,35.6-5.7s35.6,2.6,35.6,5.7C232.4,812.8,216.4,815.4,196.8,815.4 M196.8,804c-19.4,0-35.1,2.5-35.1,5.6
		c0,3.1,15.7,5.6,35.1,5.6s35.1-2.5,35.1-5.6C231.9,806.6,216.2,804,196.8,804"/>
	<path id="path422" inkscape:connector-curvature="0" class="st135" d="M196.8,815.3c-19.4,0-35.1-2.5-35.1-5.6
		c0-3.1,15.7-5.6,35.1-5.6s35.1,2.5,35.1,5.6C231.9,812.8,216.2,815.3,196.8,815.3 M196.8,804.1c-19.1,0-34.6,2.5-34.6,5.6
		c0,3.1,15.5,5.6,34.6,5.6c19.1,0,34.6-2.5,34.6-5.6C231.4,806.6,215.9,804.1,196.8,804.1"/>
	<path id="path424" inkscape:connector-curvature="0" class="st136" d="M196.8,815.2c-19.1,0-34.6-2.5-34.6-5.6
		c0-3.1,15.5-5.6,34.6-5.6c19.1,0,34.6,2.5,34.6,5.6C231.4,812.8,215.9,815.2,196.8,815.2 M196.8,804.2c-18.9,0-34.1,2.5-34.1,5.5
		c0,3,15.3,5.5,34.1,5.5c18.9,0,34.1-2.5,34.1-5.5C230.9,806.7,215.6,804.2,196.8,804.2"/>
	<path id="path426" inkscape:connector-curvature="0" class="st136" d="M196.8,815.2c-18.9,0-34.1-2.5-34.1-5.5
		c0-3,15.3-5.5,34.1-5.5c18.9,0,34.1,2.5,34.1,5.5C230.9,812.7,215.6,815.2,196.8,815.2 M196.8,804.3c-18.6,0-33.6,2.4-33.6,5.4
		c0,3,15.1,5.4,33.6,5.4c18.6,0,33.6-2.4,33.6-5.4C230.4,806.7,215.3,804.3,196.8,804.3"/>
	<path id="path428" inkscape:connector-curvature="0" class="st137" d="M196.8,815.1c-18.6,0-33.6-2.4-33.6-5.4
		c0-3,15.1-5.4,33.6-5.4c18.6,0,33.6,2.4,33.6,5.4C230.4,812.7,215.3,815.1,196.8,815.1 M196.8,804.4c-18.3,0-33.1,2.4-33.1,5.3
		c0,2.9,14.8,5.3,33.1,5.3c18.3,0,33.1-2.4,33.1-5.3C229.9,806.7,215.1,804.4,196.8,804.4"/>
	<path id="path430" inkscape:connector-curvature="0" class="st138" d="M196.8,815c-18.3,0-33.1-2.4-33.1-5.3
		c0-2.9,14.8-5.3,33.1-5.3c18.3,0,33.1,2.4,33.1,5.3C229.9,812.6,215.1,815,196.8,815 M196.8,804.4c-18,0-32.6,2.3-32.6,5.2
		c0,2.9,14.6,5.2,32.6,5.2c18,0,32.6-2.3,32.6-5.2C229.4,806.8,214.8,804.4,196.8,804.4"/>
	<path id="path432" inkscape:connector-curvature="0" class="st139" d="M196.8,814.9c-18,0-32.6-2.3-32.6-5.2
		c0-2.9,14.6-5.2,32.6-5.2c18,0,32.6,2.3,32.6,5.2C229.4,812.6,214.8,814.9,196.8,814.9 M196.8,804.5c-17.8,0-32.1,2.3-32.1,5.2
		c0,2.9,14.4,5.2,32.1,5.2c17.8,0,32.1-2.3,32.1-5.2C228.9,806.8,214.5,804.5,196.8,804.5"/>
	<path id="path434" inkscape:connector-curvature="0" class="st140" d="M196.8,814.8c-17.8,0-32.1-2.3-32.1-5.2
		c0-2.8,14.4-5.2,32.1-5.2c17.8,0,32.1,2.3,32.1,5.2C228.9,812.5,214.5,814.8,196.8,814.8 M196.8,804.6c-17.5,0-31.6,2.3-31.6,5.1
		c0,2.8,14.2,5.1,31.6,5.1c17.5,0,31.7-2.3,31.7-5.1C228.4,806.9,214.2,804.6,196.8,804.6"/>
	<path id="path436" inkscape:connector-curvature="0" class="st140" d="M196.8,814.8c-17.5,0-31.6-2.3-31.6-5.1
		c0-2.8,14.2-5.1,31.6-5.1c17.5,0,31.7,2.3,31.7,5.1C228.4,812.5,214.2,814.8,196.8,814.8 M196.8,804.7c-17.2,0-31.2,2.2-31.2,5
		c0,2.8,13.9,5,31.2,5c17.2,0,31.2-2.2,31.2-5C227.9,806.9,214,804.7,196.8,804.7"/>
	<path id="path438" inkscape:connector-curvature="0" class="st141" d="M196.8,814.7c-17.2,0-31.2-2.2-31.2-5c0-2.8,13.9-5,31.2-5
		c17.2,0,31.2,2.2,31.2,5C227.9,812.4,214,814.7,196.8,814.7 M196.8,804.8c-16.9,0-30.7,2.2-30.7,4.9c0,2.7,13.7,4.9,30.7,4.9
		c16.9,0,30.7-2.2,30.7-4.9C227.4,807,213.7,804.8,196.8,804.8"/>
	<path id="path440" inkscape:connector-curvature="0" class="st142" d="M196.8,814.6c-16.9,0-30.7-2.2-30.7-4.9
		c0-2.7,13.7-4.9,30.7-4.9c16.9,0,30.7,2.2,30.7,4.9C227.4,812.4,213.7,814.6,196.8,814.6 M196.8,804.8c-16.7,0-30.2,2.2-30.2,4.8
		c0,2.7,13.5,4.8,30.2,4.8c16.7,0,30.2-2.2,30.2-4.8C226.9,807,213.4,804.8,196.8,804.8"/>
	<path id="path442" inkscape:connector-curvature="0" class="st143" d="M196.8,814.5c-16.7,0-30.2-2.2-30.2-4.8
		c0-2.7,13.5-4.8,30.2-4.8c16.7,0,30.2,2.2,30.2,4.8C226.9,812.4,213.4,814.5,196.8,814.5 M196.8,804.9c-16.4,0-29.7,2.1-29.7,4.8
		c0,2.6,13.3,4.8,29.7,4.8c16.4,0,29.7-2.1,29.7-4.8C226.4,807.1,213.1,804.9,196.8,804.9"/>
	<path id="path444" inkscape:connector-curvature="0" class="st144" d="M196.8,814.4c-16.4,0-29.7-2.1-29.7-4.8
		c0-2.6,13.3-4.8,29.7-4.8c16.4,0,29.7,2.1,29.7,4.8C226.4,812.3,213.1,814.4,196.8,814.4 M196.8,805c-16.1,0-29.2,2.1-29.2,4.7
		c0,2.6,13.1,4.7,29.2,4.7c16.1,0,29.2-2.1,29.2-4.7C225.9,807.1,212.9,805,196.8,805"/>
	<path id="path446" inkscape:connector-curvature="0" class="st145" d="M196.8,814.4c-16.1,0-29.2-2.1-29.2-4.7
		c0-2.6,13.1-4.7,29.2-4.7c16.1,0,29.2,2.1,29.2,4.7C225.9,812.3,212.9,814.4,196.8,814.4 M196.8,805.1c-15.8,0-28.7,2.1-28.7,4.6
		c0,2.5,12.8,4.6,28.7,4.6c15.8,0,28.7-2.1,28.7-4.6C225.4,807.1,212.6,805.1,196.8,805.1"/>
	<path id="path448" inkscape:connector-curvature="0" class="st146" d="M196.8,814.3c-15.8,0-28.7-2.1-28.7-4.6
		c0-2.5,12.8-4.6,28.7-4.6c15.8,0,28.7,2.1,28.7,4.6C225.4,812.2,212.6,814.3,196.8,814.3 M196.8,805.2c-15.6,0-28.2,2-28.2,4.5
		c0,2.5,12.6,4.5,28.2,4.5c15.6,0,28.2-2,28.2-4.5C224.9,807.2,212.3,805.2,196.8,805.2"/>
	<path id="path450" inkscape:connector-curvature="0" class="st147" d="M196.8,814.2c-15.6,0-28.2-2-28.2-4.5s12.6-4.5,28.2-4.5
		c15.6,0,28.2,2,28.2,4.5S212.3,814.2,196.8,814.2 M196.8,805.2c-15.3,0-27.7,2-27.7,4.4c0,2.5,12.4,4.4,27.7,4.4
		c15.3,0,27.7-2,27.7-4.4C224.4,807.2,212,805.2,196.8,805.2"/>
	<path id="path452" inkscape:connector-curvature="0" class="st148" d="M196.8,814.1c-15.3,0-27.7-2-27.7-4.4
		c0-2.4,12.4-4.4,27.7-4.4c15.3,0,27.7,2,27.7,4.4C224.4,812.1,212,814.1,196.8,814.1 M196.8,805.3c-15,0-27.2,2-27.2,4.4
		c0,2.4,12.2,4.4,27.2,4.4c15,0,27.2-1.9,27.2-4.4C223.9,807.3,211.8,805.3,196.8,805.3"/>
	<path id="path454" inkscape:connector-curvature="0" class="st149" d="M196.8,814c-15,0-27.2-1.9-27.2-4.4c0-2.4,12.2-4.4,27.2-4.4
		c15,0,27.2,2,27.2,4.4C223.9,812.1,211.8,814,196.8,814 M196.8,805.4c-14.7,0-26.7,1.9-26.7,4.3c0,2.4,11.9,4.3,26.7,4.3
		c14.7,0,26.7-1.9,26.7-4.3C223.4,807.3,211.5,805.4,196.8,805.4"/>
	<path id="path456" inkscape:connector-curvature="0" class="st149" d="M196.8,814c-14.7,0-26.7-1.9-26.7-4.3
		c0-2.4,11.9-4.3,26.7-4.3c14.7,0,26.7,1.9,26.7,4.3C223.4,812,211.5,814,196.8,814 M196.8,805.5c-14.4,0-26.2,1.9-26.2,4.2
		c0,2.3,11.7,4.2,26.2,4.2c14.5,0,26.2-1.9,26.2-4.2C222.9,807.4,211.2,805.5,196.8,805.5"/>
	<path id="path458" inkscape:connector-curvature="0" class="st150" d="M196.8,813.9c-14.4,0-26.2-1.9-26.2-4.2
		c0-2.3,11.7-4.2,26.2-4.2c14.5,0,26.2,1.9,26.2,4.2C222.9,812,211.2,813.9,196.8,813.9 M196.8,805.6c-14.2,0-25.7,1.8-25.7,4.1
		c0,2.3,11.5,4.1,25.7,4.1c14.2,0,25.7-1.8,25.7-4.1C222.4,807.4,210.9,805.6,196.8,805.6"/>
	<path id="path460" inkscape:connector-curvature="0" class="st150" d="M196.8,813.8c-14.2,0-25.7-1.8-25.7-4.1
		c0-2.3,11.5-4.1,25.7-4.1c14.2,0,25.7,1.8,25.7,4.1C222.4,812,210.9,813.8,196.8,813.8 M196.8,805.6c-13.9,0-25.2,1.8-25.2,4
		c0,2.2,11.3,4,25.2,4c13.9,0,25.2-1.8,25.2-4C221.9,807.5,210.7,805.6,196.8,805.6"/>
	<path id="path462" inkscape:connector-curvature="0" class="st151" d="M196.8,813.7c-13.9,0-25.2-1.8-25.2-4c0-2.2,11.3-4,25.2-4
		c13.9,0,25.2,1.8,25.2,4C221.9,811.9,210.7,813.7,196.8,813.7"/>
	<g id="g1482" transform="matrix(0.33710431,0,0,-0.30306854,-263.55393,1320.2338)">
		<g>
			<defs>
				<polygon id="SVGID_1_" points="1799,3394 1819.5,3108.8 1923.6,3154.5 1937.1,3394 1799,3394 				"/>
			</defs>
			<clipPath id="SVGID_2_">
				<use xlink:href="#SVGID_1_"  style="overflow:visible;"/>
			</clipPath>
			<g id="g1484" class="st152">
				
					<linearGradient id="path1504_1_" gradientUnits="userSpaceOnUse" x1="781.8179" y1="1578.332" x2="782.8179" y2="1578.332" gradientTransform="matrix(82.7125 16.5241 14.8558 -74.3614 -86380.3594 107684.3594)">
					<stop  offset="0" style="stop-color:#8EAA1D"/>
					<stop  offset="4.878050e-003" style="stop-color:#8EAA1D"/>
					<stop  offset="0.2843" style="stop-color:#8EB11F"/>
					<stop  offset="0.7024" style="stop-color:#ABD932"/>
					<stop  offset="0.9902" style="stop-color:#BDEE23"/>
					<stop  offset="1" style="stop-color:#BDEE23"/>
				</linearGradient>
				<path id="path1504" inkscape:connector-curvature="0" class="st153" d="M1799,3394l20.5-285.2l104.1,45.7l13.4,239.5H1799"/>
			</g>
		</g>
	</g>
	<g id="g1506" transform="matrix(0.33710431,0,0,-0.30306854,-263.55393,1320.2338)">
		<g>
			<defs>
				<path id="SVGID_3_" d="M1880.4,4205.4l-0.8,33.2c0.8-4.4,1.3-9,1.3-13.8C1880.8,4218,1880.7,4211.7,1880.4,4205.4z"/>
			</defs>
			<clipPath id="SVGID_4_">
				<use xlink:href="#SVGID_3_"  style="overflow:visible;"/>
			</clipPath>
			<g id="g1508" class="st154">
				
					<linearGradient id="path1532_1_" gradientUnits="userSpaceOnUse" x1="781.8179" y1="1578.3286" x2="782.8179" y2="1578.3286" gradientTransform="matrix(2.0633 0.4122 0.3706 -1.855 -321.1426 6826.8755)">
					<stop  offset="0" style="stop-color:#8EAA1D"/>
					<stop  offset="4.878050e-003" style="stop-color:#8EAA1D"/>
					<stop  offset="0.1171" style="stop-color:#BDEE23"/>
					<stop  offset="0.2878" style="stop-color:#D8F578"/>
					<stop  offset="0.5024" style="stop-color:#B1E81D"/>
					<stop  offset="0.7024" style="stop-color:#ABD932"/>
					<stop  offset="0.9902" style="stop-color:#BDEE23"/>
					<stop  offset="1" style="stop-color:#BDEE23"/>
				</linearGradient>
				<path id="path1532" inkscape:connector-curvature="0" class="st155" d="M1880.4,4205.4l-0.8,33.2c0.8-4.4,1.3-9,1.3-13.8
					C1880.8,4218,1880.7,4211.7,1880.4,4205.4"/>
			</g>
		</g>
	</g>
	<g id="g1534" transform="matrix(0.33710431,0,0,-0.30306854,-263.55393,1320.2338)">
		<g>
			<defs>
				<path id="SVGID_5_" d="M2414.3,3282.5c0,0-585.9-247.9-594.8-173.6c-1.3,10.6,9.2,27.8,34.9,53.2c34.8,34.5,50.5,63.1,50.3,85.8
					l-0.1,2.1l-19.9,785.7c155.3,44.8,511.6,147.5,529.7,203.1V3282.5z"/>
			</defs>
			<clipPath id="SVGID_6_">
				<use xlink:href="#SVGID_5_"  style="overflow:visible;"/>
			</clipPath>
			<g id="g1536" class="st156">
				
					<linearGradient id="path1552_1_" gradientUnits="userSpaceOnUse" x1="781.8179" y1="1578.332" x2="782.8179" y2="1578.332" gradientTransform="matrix(396.3106 12.9016 11.599 -356.2971 -326710.5 555912.625)">
					<stop  offset="0" style="stop-color:#576120"/>
					<stop  offset="0.5122" style="stop-color:#ABD932"/>
					<stop  offset="0.9902" style="stop-color:#BDEE23"/>
					<stop  offset="1" style="stop-color:#BDEE23"/>
				</linearGradient>
				<path id="path1552" inkscape:connector-curvature="0" class="st157" d="M2414.3,3282.5c0,0-585.9-247.9-594.8-173.6
					c-1.3,10.6,9.2,27.8,34.9,53.2c34.8,34.5,50.5,63.1,50.3,85.8l-0.1,2.1l-19.9,785.7c155.3,44.8,511.6,147.5,529.7,203.1V3282.5"
					/>
			</g>
		</g>
	</g>
	<g id="g1554" transform="matrix(0.33710431,0,0,-0.30306854,-263.55393,1320.2338)">
		<g>
			<defs>
				<path id="SVGID_7_" d="M1365.3,1700.2l-506.9,2441c0,0-7.6,12.5-32.1,6.6c-24-5.8-21.4-19.9-21.4-19.9l495.4-2436
					c0-4.7,11.4-10.2,38.7-5.7c18.4,3,26.5,8.3,26.5,13L1365.3,1700.2L1365.3,1700.2z"/>
			</defs>
			<clipPath id="SVGID_8_">
				<use xlink:href="#SVGID_7_"  style="overflow:visible;"/>
			</clipPath>
			<g id="g1556" class="st158">
				
					<linearGradient id="path1578_1_" gradientUnits="userSpaceOnUse" x1="781.8179" y1="1578.3319" x2="782.8179" y2="1578.3319" gradientTransform="matrix(29.8157 6.2611 5.629 -26.8053 -31148.9082 40321.9375)">
					<stop  offset="0" style="stop-color:#81951A"/>
					<stop  offset="4.878050e-003" style="stop-color:#81951A"/>
					<stop  offset="0.1171" style="stop-color:#82981B"/>
					<stop  offset="0.2878" style="stop-color:#859F23"/>
					<stop  offset="0.7805" style="stop-color:#636E1E"/>
					<stop  offset="0.9902" style="stop-color:#82981B"/>
					<stop  offset="1" style="stop-color:#82981B"/>
				</linearGradient>
				<path id="path1578" inkscape:connector-curvature="0" class="st159" d="M1365.3,1700.2l-506.9,2441c0,0-7.6,12.5-32.1,6.6
					c-24-5.8-21.4-19.9-21.4-19.9l495.4-2436c0-4.7,11.4-10.2,38.7-5.7c18.4,3,26.5,8.3,26.5,13L1365.3,1700.2"/>
			</g>
		</g>
	</g>
	<g id="g1580" transform="matrix(0.33710431,0,0,-0.30306854,-263.55393,1320.2338)">
		<g>
			<defs>
				<path id="SVGID_9_" d="M1050.9,3069.6c15.7,3.7,28.7,4.4,29.8,1.5L866.2,4101.9l-0.5-0.1c-2.1,3.9-14.3,4.4-28.3,0.9
					c-14.7-3.7-25.8-10.2-24.7-14.7L1023,3056C1022.3,3059.1,1034.9,3065.9,1050.9,3069.6z"/>
			</defs>
			<clipPath id="SVGID_10_">
				<use xlink:href="#SVGID_9_"  style="overflow:visible;"/>
			</clipPath>
			<g id="g1582" class="st160">
				
					<linearGradient id="path1606_1_" gradientUnits="userSpaceOnUse" x1="781.8179" y1="1578.3324" x2="782.8179" y2="1578.3324" gradientTransform="matrix(20.7823 4.3196 3.8835 -18.684 -21458.543 29689.3594)">
					<stop  offset="0" style="stop-color:#8EAA1D"/>
					<stop  offset="4.878050e-003" style="stop-color:#8EAA1D"/>
					<stop  offset="0.1171" style="stop-color:#BDEE23"/>
					<stop  offset="0.2878" style="stop-color:#D8F578"/>
					<stop  offset="0.5024" style="stop-color:#B1E81D"/>
					<stop  offset="0.7805" style="stop-color:#ABD932"/>
					<stop  offset="0.9902" style="stop-color:#BDEE23"/>
					<stop  offset="1" style="stop-color:#BDEE23"/>
				</linearGradient>
				<path id="path1606" inkscape:connector-curvature="0" class="st161" d="M1050.9,3069.6c15.7,3.7,28.7,4.4,29.8,1.5L866.2,4101.9
					l-0.5-0.1c-2.1,3.9-14.3,4.4-28.3,0.9c-14.7-3.7-25.8-10.2-24.7-14.7L1023,3056C1022.3,3059.1,1034.9,3065.9,1050.9,3069.6"/>
			</g>
		</g>
	</g>
	<g id="g1608" transform="matrix(0.33710431,0,0,-0.30306854,-263.55393,1320.2338)">
		<g>
			<defs>
				<path id="SVGID_11_" d="M1884.7,4035.5l-4.3,169.9l-0.8,33.2c-24,128.6-377.2,114.4-628.5,30.9c-297.4-98.8-385-170.2-385-170.2
					l214.6-1028.2c377.4,244.2,817.1,310.8,823.9,178.7L1884.7,4035.5L1884.7,4035.5z"/>
			</defs>
			<clipPath id="SVGID_12_">
				<use xlink:href="#SVGID_11_"  style="overflow:visible;"/>
			</clipPath>
			<g id="g1610" class="st162">
				
					<linearGradient id="path1634_1_" gradientUnits="userSpaceOnUse" x1="781.8179" y1="1578.332" x2="782.8179" y2="1578.332" gradientTransform="matrix(343.2531 68.894 61.9384 -308.5965 -365155.4688 436839.9375)">
					<stop  offset="0" style="stop-color:#8EAA1D"/>
					<stop  offset="4.878050e-003" style="stop-color:#8EAA1D"/>
					<stop  offset="6.523410e-002" style="stop-color:#BDEE23"/>
					<stop  offset="0.2878" style="stop-color:#D8F578"/>
					<stop  offset="0.5024" style="stop-color:#B1E81D"/>
					<stop  offset="0.7024" style="stop-color:#ABD932"/>
					<stop  offset="0.9902" style="stop-color:#BDEE23"/>
					<stop  offset="1" style="stop-color:#BDEE23"/>
				</linearGradient>
				<path id="path1634" inkscape:connector-curvature="0" class="st163" d="M1884.7,4035.5l-4.3,169.9l-0.8,33.2
					c-24,128.6-377.2,114.4-628.5,30.9c-297.4-98.8-385-170.2-385-170.2l214.6-1028.2c377.4,244.2,817.1,310.8,823.9,178.7
					L1884.7,4035.5"/>
			</g>
		</g>
	</g>
	<g id="g1840" transform="matrix(0.33710431,0,0,-0.30306854,-263.55393,1320.2338)">
		<g>
			<defs>
				<path id="SVGID_13_" d="M1082.2,3068.6l-3.2,5.1c4.7,3,476,295.2,760.4,238.5c44.6-8.9,66.7-26.1,67.5-52.7
					c1.4-41.6-29.6-76.2-54.5-103.9c-16.8-18.8-31.3-35-28.6-46c0.8-3.1,2.9-5.5,6.5-7.3c70.6-35.3,578.8,181.7,583.9,183.8v-6.1
					c-19.3-8.3-437.9-187.3-561.6-187.3c-10.7,0-19.2,1.3-25,4.2c-5.2,2.6-8.5,6.4-9.7,11.3c-3.5,14.1,11.3,30.6,30,51.4
					c24.2,27,54.3,60.5,53,99.7c-0.5,14.9-7.5,36.1-62.7,47C1556.1,3362.6,1086.9,3071.5,1082.2,3068.6L1082.2,3068.6z"/>
			</defs>
			<clipPath id="SVGID_14_">
				<use xlink:href="#SVGID_13_"  style="overflow:visible;"/>
			</clipPath>
			<g id="g1842" class="st164">
				
					<linearGradient id="path1856_1_" gradientUnits="userSpaceOnUse" x1="781.8179" y1="1578.332" x2="782.8179" y2="1578.332" gradientTransform="matrix(450.1259 0 0 -404.679 -350837.4688 641911.8125)">
					<stop  offset="0" style="stop-color:#8EAA1D"/>
					<stop  offset="4.878050e-003" style="stop-color:#8EAA1D"/>
					<stop  offset="1" style="stop-color:#ABD932"/>
				</linearGradient>
				<path id="path1856" inkscape:connector-curvature="0" class="st165" d="M1082.2,3068.6l-3.2,5.1c4.7,3,476,295.2,760.4,238.5
					c44.6-8.9,66.7-26.1,67.5-52.7c1.4-41.6-29.6-76.2-54.5-103.9c-16.8-18.8-31.3-35-28.6-46c0.8-3.1,2.9-5.5,6.5-7.3
					c70.6-35.3,578.8,181.7,583.9,183.8v-6.1c-19.3-8.3-437.9-187.3-561.6-187.3c-10.7,0-19.2,1.3-25,4.2c-5.2,2.6-8.5,6.4-9.7,11.3
					c-3.5,14.1,11.3,30.6,30,51.4c24.2,27,54.3,60.5,53,99.7c-0.5,14.9-7.5,36.1-62.7,47C1556.1,3362.6,1086.9,3071.5,1082.2,3068.6
					"/>
			</g>
		</g>
	</g>
	<g id="g1858" transform="matrix(0.33710431,0,0,-0.30306854,-263.55393,1320.2338)">
		<g>
			<defs>
				<polyline id="SVGID_15_" points="2414.1,4238.6 2412.3,3279.9 2416.3,3279.9 2418.1,4238.6 				"/>
			</defs>
			<clipPath id="SVGID_16_">
				<use xlink:href="#SVGID_15_"  style="overflow:visible;"/>
			</clipPath>
			<g id="g1860" class="st166">
				
					<linearGradient id="path1876_1_" gradientUnits="userSpaceOnUse" x1="781.8179" y1="1578.3297" x2="782.8183" y2="1578.3297" gradientTransform="matrix(1.9489 0 0 -1.7521 888.6536 6524.6807)">
					<stop  offset="0" style="stop-color:#BDEE23"/>
					<stop  offset="0.8" style="stop-color:#D8F578"/>
					<stop  offset="0.9902" style="stop-color:#BDEE23"/>
					<stop  offset="1" style="stop-color:#BDEE23"/>
				</linearGradient>
				<path id="path1876" inkscape:connector-curvature="0" class="st167" d="M2414.1,4238.6l-1.8-958.7l4,0l1.8,958.7"/>
			</g>
		</g>
	</g>
</g>
</svg>
